<?xml version="1.0" standalone="no"?>
<!DOCTYPE svg PUBLIC "-//W3C//DTD SVG 20010904//EN"
 "http://www.w3.org/TR/2001/REC-SVG-20010904/DTD/svg10.dtd">
<svg version="1.0" xmlns="http://www.w3.org/2000/svg"
 width="900.000000pt" height="900.000000pt" viewBox="0 0 900.000000 900.000000"
 preserveAspectRatio="xMidYMid meet">

<g transform="translate(0.000000,900.000000) scale(0.100000,-0.100000)"
fill="#000000" stroke="none">
<path d="M4310 7471 c-29 -5 -32 -8 -18 -16 10 -6 19 -30 23 -66 l7 -56 -56
-7 c-31 -4 -60 -5 -66 -1 -14 9 -13 108 2 123 9 9 0 12 -40 12 -47 0 -70 -12
-40 -22 21 -7 38 -288 18 -288 -5 0 -10 -3 -10 -7 0 -5 25 -6 55 -5 30 2 55 8
55 13 0 5 -6 9 -14 9 -7 0 -16 10 -20 23 -8 31 -7 105 2 110 4 3 30 8 59 12
l51 7 7 -67 c7 -58 5 -68 -11 -80 -18 -13 -16 -14 16 -15 19 0 45 3 57 6 20 5
20 8 8 21 -8 8 -15 26 -15 41 0 15 -5 72 -10 126 -9 87 -8 102 7 118 15 17 15
18 -8 17 -13 -1 -40 -4 -59 -8z"/>
<path d="M4655 7466 c-115 -52 -128 -259 -19 -311 20 -9 57 -38 82 -65 51 -52
104 -72 145 -52 21 10 21 11 -5 11 -27 1 -108 63 -108 83 0 5 15 24 34 41 77
73 72 230 -8 282 -34 23 -86 27 -121 11z m98 -38 c26 -34 33 -120 17 -188 -28
-117 -133 -100 -147 23 -17 146 66 251 130 165z"/>
<path d="M4910 7441 c0 -5 5 -11 11 -13 7 -2 5 -40 -6 -123 -20 -141 -15 -168
40 -190 81 -34 135 0 154 98 6 31 16 82 22 113 8 42 16 57 32 64 25 9 16 14
-40 24 -37 6 -40 2 -18 -20 8 -9 13 -25 10 -37 -2 -12 -10 -55 -16 -96 -21
-121 -77 -174 -128 -120 -25 27 -26 48 -6 154 22 120 24 125 43 125 14 1 15 2
2 9 -24 13 -100 22 -100 12z"/>
<path d="M3916 7430 c-92 -28 -133 -145 -86 -247 34 -77 119 -103 210 -67 43
17 44 22 24 96 -3 9 0 19 6 23 25 16 6 21 -45 12 -53 -10 -76 -27 -36 -27 15
0 21 -10 26 -40 8 -50 2 -60 -40 -60 -97 0 -153 208 -73 275 39 33 63 31 99
-4 30 -31 36 -24 23 27 -5 18 -13 22 -43 21 -20 0 -49 -5 -65 -9z"/>
<path d="M3663 7366 c-41 -15 -52 -26 -25 -26 25 0 41 -28 71 -124 35 -114 22
-166 -42 -166 -37 0 -63 39 -97 148 -23 74 -27 99 -19 115 10 17 9 19 -7 13
-11 -4 -36 -13 -56 -19 -40 -13 -50 -27 -20 -27 15 0 26 -22 53 -102 50 -150
86 -182 171 -149 66 25 71 80 23 234 -24 75 -25 81 -9 98 20 22 8 24 -43 5z"/>
<path d="M5304 7352 c-7 -4 -48 -62 -93 -129 -51 -77 -87 -123 -98 -124 -12 0
-8 -5 12 -14 44 -21 58 -19 43 4 -9 15 -7 24 11 50 23 32 48 39 82 21 26 -14
27 -84 2 -99 -10 -6 -16 -11 -13 -11 11 -1 228 -78 262 -94 36 -16 37 -15 57
10 30 38 26 48 -9 22 -29 -21 -31 -21 -66 -4 -44 20 -43 25 13 170 25 64 44
101 56 104 29 7 19 19 -30 36 -26 9 -47 16 -48 16 -1 0 0 -11 2 -24 5 -27 -69
-231 -92 -255 -12 -12 -17 -12 -39 3 l-26 16 0 155 c0 85 -3 155 -7 155 -5 0
-13 -4 -19 -8z m-24 -118 l0 -56 -27 7 c-16 4 -29 8 -31 10 -7 7 44 95 54 95
2 0 4 -25 4 -56z"/>
<path d="M3224 7197 c-31 -28 -37 -41 -42 -85 -13 -143 110 -253 218 -194 90
48 93 177 6 267 -40 42 -46 45 -94 45 -45 0 -57 -5 -88 -33z m116 -18 c36 -36
63 -87 79 -146 10 -35 9 -48 -3 -72 -36 -68 -116 -32 -166 74 -32 68 -35 116
-10 148 28 36 61 35 100 -4z"/>
<path d="M5721 7202 c11 -18 7 -34 -35 -124 -59 -129 -72 -149 -91 -142 -8 4
-15 3 -15 0 0 -10 102 -58 108 -51 4 3 0 10 -7 15 -15 9 -11 22 64 183 27 58
40 77 55 77 44 0 24 14 -83 59 -5 2 -3 -6 4 -17z"/>
<path d="M5861 7124 c-26 -33 -28 -53 -3 -31 22 21 42 21 67 3 17 -12 17 -15
-12 -67 -104 -188 -108 -192 -137 -183 -30 9 -11 -8 47 -41 l48 -27 -6 24 c-5
19 8 51 57 136 37 65 69 111 79 112 23 0 39 -21 39 -54 l0 -31 20 25 c11 14
20 28 20 32 0 3 -37 27 -82 53 -46 26 -90 54 -99 62 -15 12 -19 11 -38 -13z"/>
<path d="M2960 7058 c-35 -18 -65 -39 -68 -47 -3 -8 0 -11 5 -8 15 9 35 -17
98 -130 48 -85 55 -106 45 -118 -19 -23 4 -19 50 8 43 24 51 37 23 37 -11 0
-29 20 -46 50 -25 44 -26 51 -12 56 10 4 31 -5 55 -25 51 -41 84 -53 114 -41
33 12 42 30 16 30 -12 0 -46 17 -75 37 -52 36 -53 38 -51 85 1 35 -4 52 -19
67 -36 35 -65 35 -135 -1z m73 -18 c36 -28 49 -72 31 -99 -23 -32 -36 -26 -66
28 -31 54 -35 77 -15 84 20 9 23 8 50 -13z"/>
<path d="M6119 6992 c7 -14 4 -44 -10 -105 -24 -100 -71 -181 -100 -174 -32 8
-21 -8 26 -41 53 -37 59 -39 46 -13 -19 34 38 103 130 156 43 26 86 44 94 41
22 -8 18 3 -7 25 -29 23 -38 24 -38 2 -1 -18 -106 -90 -116 -80 -3 3 2 33 12
67 12 44 23 64 38 69 19 8 19 9 -10 24 -17 9 -36 23 -43 31 -19 22 -34 20 -22
-2z"/>
<path d="M2772 6939 c-46 -33 -53 -44 -23 -34 14 4 27 -5 50 -37 17 -23 31
-47 31 -54 0 -12 -72 -64 -89 -64 -16 0 -70 91 -64 107 5 13 1 13 -26 -3 -18
-10 -40 -28 -49 -38 -16 -18 -16 -19 0 -13 12 4 27 -6 51 -36 68 -85 128 -181
124 -199 -7 -24 -2 -23 50 15 44 31 45 32 20 37 -25 5 -86 73 -87 97 0 10 77
73 89 73 16 -1 73 -102 68 -120 -7 -27 -3 -26 50 13 39 27 42 32 24 35 -22 4
-35 18 -118 135 -37 52 -53 85 -50 98 7 26 -2 24 -51 -12z"/>
<path d="M6424 6763 c7 -22 -1 -34 -108 -156 -51 -59 -63 -68 -85 -63 -20 5
-10 -9 49 -63 41 -39 80 -70 85 -71 6 0 21 7 33 16 28 19 30 39 3 24 -30 -15
-44 -12 -74 15 -25 24 -26 28 -13 53 8 15 26 38 40 52 22 19 30 22 44 13 9 -6
17 -22 17 -37 -1 -34 4 -33 38 9 28 36 28 36 5 30 -17 -4 -29 0 -42 14 -17 19
-17 21 15 60 36 46 44 48 78 25 18 -13 22 -24 19 -50 -2 -19 -2 -34 0 -34 5 0
41 44 42 51 0 4 -34 35 -76 69 -52 44 -74 57 -70 43z"/>
<path d="M2504 6736 c-16 -17 -54 -54 -85 -82 l-56 -50 24 -34 25 -35 -7 32
c-7 34 8 73 28 73 12 0 55 -42 161 -156 34 -38 37 -44 25 -65 l-12 -24 24 20
c51 42 79 69 79 77 0 5 -9 4 -19 -2 -17 -8 -32 4 -115 92 -91 96 -95 102 -79
120 18 21 53 24 71 6 21 -21 13 3 -11 32 l-24 28 -29 -32z"/>
<path d="M4495 6622 c-3 -3 -5 -138 -5 -300 0 -163 -3 -293 -6 -289 -6 5 -11
30 -44 190 -11 54 -13 57 -41 57 -16 0 -29 -5 -29 -12 0 -14 23 -126 45 -220
18 -77 2 -63 -42 37 -165 376 -218 485 -232 485 -49 -1 -46 -11 74 -281 64
-145 128 -290 142 -321 14 -32 28 -58 32 -58 3 0 32 25 65 55 32 30 62 52 67
49 5 -3 6 -10 3 -16 -4 -6 -2 -8 3 -5 13 8 208 -200 227 -242 5 -11 16 -23 24
-26 14 -5 13 -3 -1 13 -16 17 -5 34 233 346 138 180 250 331 250 336 0 5 -10
15 -22 21 -25 14 -15 24 -167 -176 -282 -371 -343 -450 -350 -453 -4 -1 -13 4
-20 11 -9 12 12 48 104 183 63 93 118 175 121 182 7 14 -24 43 -41 38 -5 -1
-59 -77 -121 -169 -61 -91 -114 -164 -117 -161 -3 3 1 17 8 32 21 44 50 109
110 252 32 74 79 187 107 250 45 106 47 116 31 127 -29 22 -38 15 -67 -54 -16
-38 -42 -99 -59 -138 -16 -38 -37 -88 -47 -110 -45 -101 -78 -182 -85 -202 -3
-13 -11 -23 -16 -23 -5 0 -7 10 -5 23 3 12 12 54 21 94 20 97 19 120 -5 128
-11 3 -24 4 -29 1 -5 -3 -14 -43 -21 -88 -7 -46 -16 -90 -21 -98 -5 -8 -9 105
-9 258 0 149 -3 272 -7 273 -5 0 -18 2 -31 3 -12 2 -24 0 -27 -2z"/>
<path d="M6623 6576 c8 -19 -153 -177 -195 -192 l-31 -11 65 -66 c72 -73 110
-88 174 -67 50 17 111 80 120 124 11 62 -3 99 -62 164 -53 59 -83 79 -71 48z
m76 -82 c24 -31 27 -74 7 -112 -20 -38 -75 -89 -111 -102 -56 -21 -115 5 -115
52 0 12 178 187 192 188 4 0 16 -12 27 -26z"/>
<path d="M2223 6461 c-47 -39 -51 -94 -11 -138 27 -29 68 -37 117 -22 67 20
129 -18 110 -68 -10 -26 -39 -36 -82 -28 l-32 6 24 -21 c33 -29 54 -25 90 15
47 54 38 115 -21 150 -24 14 -41 16 -82 10 -97 -14 -126 -4 -126 41 0 30 29
45 72 38 l33 -6 -25 21 c-31 25 -39 25 -67 2z"/>
<path d="M3716 6447 c-13 -9 -16 -19 -11 -28 9 -13 354 -491 458 -632 l50 -68
24 23 c13 12 20 24 16 27 -5 3 -12 14 -18 23 -9 15 -58 82 -360 497 -67 90
-125 166 -131 168 -5 2 -18 -3 -28 -10z"/>
<path d="M6867 6324 c-3 -3 -3 -12 -1 -19 3 -8 -29 -37 -80 -74 -96 -69 -126
-103 -126 -138 0 -39 29 -84 65 -99 44 -18 85 -4 185 65 55 38 81 50 97 46 30
-7 29 3 -8 45 -22 25 -29 29 -25 14 7 -23 -17 -48 -99 -106 -72 -51 -119 -64
-150 -44 -18 12 -25 26 -25 47 0 36 25 63 126 134 51 37 71 45 90 41 l25 -7
-32 48 c-18 26 -33 49 -34 51 -1 1 -4 -1 -8 -4z"/>
<path d="M2066 6269 c-36 -42 -35 -87 3 -123 31 -30 50 -31 159 -10 41 8 82
-17 82 -50 0 -32 -17 -44 -70 -48 l-45 -3 32 -18 c30 -16 35 -16 56 -2 23 14
38 39 51 78 3 10 0 33 -8 51 -22 53 -78 66 -178 41 -64 -16 -109 25 -72 67 13
13 27 18 46 16 35 -6 36 5 3 20 -33 15 -29 17 -59 -19z"/>
<path d="M3418 6243 c-16 -15 -15 -19 19 -57 76 -85 633 -662 625 -647 -1 2 5
12 14 22 9 10 14 22 13 28 -5 14 -639 671 -648 671 -4 0 -14 -8 -23 -17z"/>
<path d="M4106 6227 c-17 -12 -10 -27 93 -200 61 -103 111 -190 111 -194 0 -3
-6 -14 -12 -23 -7 -9 4 2 24 25 l37 40 -23 40 c-79 143 -193 325 -202 325 -5
0 -18 -6 -28 -13z"/>
<path d="M5520 6198 c-118 -105 -185 -164 -266 -234 -50 -44 -156 -135 -235
-203 -79 -69 -146 -126 -148 -128 -2 -1 4 -12 13 -22 10 -11 15 -24 12 -29 -3
-4 4 -16 15 -25 10 -9 19 -13 19 -7 0 5 -5 12 -11 15 -5 4 -9 10 -7 14 2 5
154 139 338 300 184 161 339 298 344 306 11 15 -8 45 -28 45 -6 0 -27 -15 -46
-32z"/>
<path d="M1920 6048 c-57 -92 -56 -90 -28 -83 17 4 50 -12 131 -65 114 -74
128 -94 85 -124 -37 -26 -158 -17 -158 11 0 26 -56 73 -87 73 -42 0 -94 -60
-117 -135 -5 -16 -1 -20 22 -21 15 -1 75 -27 135 -59 82 -45 107 -63 107 -79
1 -15 8 -8 25 24 30 55 30 63 6 55 -11 -3 -37 3 -60 14 -75 39 -63 62 29 54
72 -7 93 5 124 65 14 27 43 76 65 110 23 33 41 65 41 70 0 5 -12 19 -27 33
-23 21 -25 22 -18 4 17 -43 15 -61 -8 -89 l-24 -29 -51 29 c-29 16 -52 36 -52
45 0 24 34 51 56 43 28 -10 7 8 -41 36 -22 13 -34 17 -27 10 16 -18 15 -40 -3
-64 -14 -18 -16 -17 -65 14 -27 18 -50 34 -50 37 0 3 10 18 21 35 17 24 27 29
50 26 16 -3 29 -2 29 2 0 7 -45 30 -58 30 -4 0 -27 -33 -52 -72z m-29 -261
c39 -26 45 -44 26 -71 -14 -18 -16 -18 -71 13 -58 34 -69 53 -38 70 26 16 46
13 83 -12z"/>
<path d="M3785 6090 c-17 -19 -14 -23 91 -142 214 -242 274 -307 274 -299 0 4
17 20 38 35 31 23 33 26 12 21 -22 -5 -44 16 -204 200 -98 113 -182 205 -186
205 -4 0 -15 -9 -25 -20z"/>
<path d="M5012 5919 c-110 -101 -203 -189 -206 -196 -3 -7 3 -21 12 -33 17
-20 20 -17 197 146 99 91 193 178 210 195 l30 29 -22 21 -21 21 -200 -183z"/>
<path d="M3176 5991 c-21 -24 -70 22 387 -363 l339 -286 21 22 22 21 -135 114
c-74 63 -216 182 -314 265 -99 83 -205 172 -235 198 -31 26 -59 48 -62 48 -3
0 -14 -9 -23 -19z"/>
<path d="M6933 5976 c-105 -49 -130 -158 -57 -246 28 -32 59 -38 88 -17 16 12
14 13 -19 13 -29 0 -43 7 -61 28 -13 15 -24 36 -24 48 0 78 150 176 226 148
15 -6 33 -18 40 -28 19 -24 17 -72 -3 -94 -26 -29 10 -18 56 18 2 2 -9 28 -24
59 -45 93 -122 117 -222 71z"/>
<path d="M5740 5917 c-41 -30 -194 -138 -340 -242 -398 -283 -373 -263 -355
-281 8 -9 15 -23 15 -33 0 -10 10 -26 22 -37 l21 -19 -18 28 c-10 16 -14 31
-9 36 5 5 182 131 394 281 212 151 387 275 389 277 5 4 -30 43 -38 43 -4 0
-40 -24 -81 -53z"/>
<path d="M3547 5912 c-9 -10 -17 -23 -17 -28 0 -5 100 -107 222 -226 211 -205
222 -218 210 -238 -8 -12 -9 -19 -3 -16 6 4 18 22 27 41 9 19 24 37 34 40 10
3 21 13 25 22 5 14 2 14 -15 -2 -21 -19 -22 -18 -243 203 -214 214 -224 222
-240 204z"/>
<path d="M5240 5743 c-107 -80 -218 -163 -247 -183 -50 -36 -51 -37 -32 -54
11 -9 17 -22 13 -28 -11 -17 5 -6 241 170 270 202 261 193 244 221 -8 11 -16
21 -19 21 -3 0 -93 -66 -200 -147z"/>
<path d="M7095 5678 c-97 -15 -137 -17 -158 -10 -16 6 -26 8 -24 4 2 -4 10
-22 17 -39 16 -37 30 -43 30 -14 0 25 77 41 91 20 24 -37 22 -62 -6 -86 -17
-15 -36 -23 -47 -20 -12 4 -17 1 -14 -6 2 -7 10 -29 17 -49 12 -38 29 -51 29
-23 0 8 54 61 120 117 107 91 118 104 103 116 -9 6 -19 11 -22 11 -3 -1 -64
-10 -136 -21z m50 -43 c-44 -38 -54 -39 -66 -7 -7 18 -4 25 14 32 12 5 38 9
57 9 l35 0 -40 -34z"/>
<path d="M2968 5665 c-6 -14 -9 -27 -7 -29 2 -2 182 -111 399 -241 217 -131
399 -242 404 -246 6 -5 5 -19 -2 -36 -11 -26 -11 -27 3 -9 8 11 15 26 15 35 0
8 7 23 17 33 9 10 14 20 12 22 -2 1 -182 110 -399 240 -217 131 -399 242 -404
247 -16 15 -26 10 -38 -16z"/>
<path d="M3325 5650 c-10 -11 -16 -22 -14 -24 20 -18 514 -369 524 -372 8 -3
19 5 26 17 10 20 9 25 -12 42 -39 32 -496 357 -501 357 -3 0 -13 -9 -23 -20z"/>
<path d="M4840 5650 c0 -5 5 -10 11 -10 5 0 7 5 4 10 -3 6 -8 10 -11 10 -2 0
-4 -4 -4 -10z"/>
<path d="M5970 5606 c-30 -18 -210 -124 -400 -236 -190 -111 -351 -208 -358
-215 -10 -9 -10 -16 1 -38 8 -15 18 -23 23 -18 5 5 191 116 414 247 223 131
407 239 409 241 6 4 -21 53 -28 53 -3 -1 -31 -16 -61 -34z"/>
<path d="M4115 5610 c-10 -11 -15 -20 -11 -20 4 0 16 9 28 20 12 11 17 20 11
20 -5 0 -18 -9 -28 -20z"/>
<path d="M5385 5456 c-186 -124 -264 -170 -272 -163 -7 5 -13 5 -13 1 0 -5 9
-15 20 -22 11 -7 20 -19 20 -28 0 -9 6 -14 13 -11 13 5 516 334 530 347 11 10
-10 50 -26 49 -7 0 -129 -78 -272 -173z"/>
<path d="M1670 5565 c-43 -89 -12 -183 73 -224 116 -56 222 2 243 135 6 41 6
41 -30 48 -21 4 -46 16 -56 26 -18 18 -19 17 -35 -23 -30 -74 -30 -74 -7 -53
20 17 25 18 59 5 45 -18 53 -42 22 -75 -31 -33 -76 -39 -143 -20 -73 22 -126
71 -126 118 0 43 34 78 75 78 36 0 22 15 -21 24 -30 7 -33 4 -54 -39z"/>
<path d="M7280 5540 c-24 -8 -24 -8 -3 -9 25 -1 58 -43 50 -63 -3 -7 -61 -31
-131 -52 -103 -32 -128 -37 -141 -26 -19 16 -19 9 2 -58 15 -46 18 -51 23 -31
5 21 22 29 120 61 63 21 123 40 132 44 13 4 21 -2 28 -22 9 -23 7 -31 -12 -52
l-23 -24 35 7 c19 4 36 8 37 9 1 0 -14 48 -33 104 -19 57 -32 108 -28 113 6
11 -21 10 -56 -1z"/>
<path d="M5006 5437 c3 -10 9 -15 12 -12 3 3 0 11 -7 18 -10 9 -11 8 -5 -6z"/>
<path d="M2850 5350 c-7 -12 -8 -26 -3 -30 4 -5 114 -56 243 -113 129 -58 309
-138 400 -179 198 -90 197 -89 197 -75 0 7 4 19 7 28 5 11 -3 20 -26 32 -49
25 -770 348 -790 354 -10 3 -21 -4 -28 -17z"/>
<path d="M3172 5335 c-10 -20 -9 -26 6 -34 9 -5 130 -66 267 -136 138 -70 255
-133 261 -140 8 -11 13 -6 22 18 11 28 10 34 -5 45 -17 13 -528 272 -536 272
-2 0 -9 -11 -15 -25z"/>
<path d="M3886 5314 c-4 -10 -1 -14 6 -12 15 5 23 28 10 28 -5 0 -13 -7 -16
-16z"/>
<path d="M5950 5244 c-102 -47 -261 -119 -355 -161 -288 -128 -297 -133 -289
-152 3 -9 7 -22 7 -28 0 -16 2 -16 25 -3 9 5 186 85 392 178 499 226 450 200
438 228 -6 13 -16 24 -22 23 -6 0 -94 -39 -196 -85z"/>
<path d="M5775 5296 c-11 -7 -126 -66 -255 -131 -129 -65 -240 -122 -246 -126
-8 -7 -8 -19 0 -43 8 -26 13 -31 21 -21 5 7 127 73 270 146 143 72 262 134
264 135 6 6 -18 54 -27 54 -4 0 -16 -6 -27 -14z"/>
<path d="M7390 5269 c-10 -13 -56 -31 -135 -54 -110 -32 -121 -33 -137 -18
-21 19 -22 13 -7 -42 18 -69 20 -73 30 -48 6 17 28 28 91 47 161 49 178 52
188 36 17 -28 19 -4 4 48 -9 29 -16 52 -17 52 -1 -1 -9 -10 -17 -21z"/>
<path d="M1613 5265 c-80 -34 -97 -146 -32 -211 71 -70 195 -75 257 -9 27 29
32 42 32 84 0 39 -6 56 -27 82 -52 62 -156 86 -230 54z m99 -46 c65 -14 123
-43 132 -64 12 -31 6 -62 -15 -81 -46 -41 -229 -10 -258 45 -25 46 -5 88 49
101 19 4 36 8 37 9 1 1 26 -4 55 -10z"/>
<path d="M3826 5231 c-4 -7 -5 -15 -2 -18 9 -9 19 4 14 18 -4 11 -6 11 -12 0z"/>
<path d="M5163 5191 c1 -11 7 -23 14 -26 11 -4 11 0 2 18 -16 31 -18 32 -16 8z"/>
<path d="M7278 5080 c-46 -14 -94 -48 -106 -75 -7 -14 -12 -47 -12 -72 0 -39
5 -50 39 -84 37 -38 41 -39 107 -39 81 0 127 20 162 70 77 113 -47 243 -190
200z m162 -63 c19 -9 26 -22 28 -49 3 -33 -1 -40 -35 -62 -67 -44 -171 -58
-223 -31 -39 20 -42 70 -7 103 49 46 180 68 237 39z"/>
<path d="M5230 5068 c0 -9 5 -20 10 -23 13 -8 13 5 0 25 -8 13 -10 13 -10 -2z"/>
<path d="M3110 5020 c0 -11 0 -23 1 -27 0 -5 49 -18 107 -29 59 -12 179 -36
266 -54 129 -26 160 -29 167 -18 18 28 4 43 -51 54 -297 62 -459 94 -473 94
-10 0 -17 -8 -17 -20z"/>
<path d="M5790 4975 c-36 -8 -130 -28 -210 -45 -80 -17 -171 -36 -203 -42 -42
-7 -56 -13 -48 -21 6 -6 12 -29 12 -52 1 -22 4 -30 6 -18 5 25 19 30 183 62
198 39 342 70 347 75 8 7 -6 56 -15 55 -4 0 -36 -7 -72 -14z"/>
<path d="M1805 4952 c-19 -19 -104 -52 -131 -52 -7 0 -24 11 -38 25 -25 25
-66 32 -101 19 -26 -10 -45 -60 -52 -132 -6 -64 -6 -66 12 -49 11 11 26 16 39
13 12 -2 66 -10 121 -16 77 -9 104 -16 117 -31 16 -19 17 -19 23 18 4 21 9 46
12 56 2 9 0 17 -6 17 -6 0 -11 -5 -11 -11 0 -8 -18 -10 -62 -5 -34 3 -64 8
-67 11 -11 11 26 34 81 49 46 13 61 23 73 47 23 43 17 66 -10 41z m-190 -64
c28 -13 45 -56 26 -67 -15 -9 -122 6 -135 19 -14 14 33 60 60 60 13 0 35 -5
49 -12z"/>
<path d="M2778 4914 c-5 -4 -8 -17 -8 -29 0 -23 -43 -19 650 -70 102 -8 186
-14 188 -14 1 -1 2 -8 2 -16 0 -8 4 -15 9 -15 6 0 9 8 9 18 0 9 3 29 7 45 4
15 3 27 -1 27 -5 0 -162 11 -349 25 -187 14 -376 28 -420 31 -44 4 -83 3 -87
-2z"/>
<path d="M5910 4820 c-157 -10 -340 -21 -407 -25 -67 -5 -127 -11 -133 -15 -7
-4 -8 -19 -1 -46 5 -21 9 -31 10 -21 1 9 7 17 14 17 41 0 750 41 785 46 39 5
43 8 40 31 -2 15 -7 27 -13 28 -5 1 -138 -6 -295 -15z"/>
<path d="M7489 4750 c-14 -14 -40 -19 -139 -25 -85 -5 -125 -4 -133 4 -19 19
-23 13 -19 -31 4 -38 6 -40 18 -23 15 20 80 33 173 34 67 1 65 -1 -75 -106
-57 -43 -104 -84 -104 -92 0 -11 11 -12 53 -7 28 3 96 9 149 12 85 6 98 5 104
-10 12 -30 19 -16 16 29 -4 40 -6 44 -17 29 -17 -24 -185 -47 -185 -25 0 5 43
42 95 82 90 70 95 76 95 112 0 41 -7 45 -31 17z"/>
<path d="M3110 4732 l0 -29 92 -7 c136 -9 388 -7 388 3 0 5 3 16 6 25 8 21
-21 24 -273 31 l-213 5 0 -28z"/>
<path d="M1503 4683 c-31 -25 -43 -64 -43 -136 0 -53 2 -59 13 -43 13 18 21
18 146 6 94 -9 134 -17 138 -26 12 -32 23 -10 23 48 0 55 -1 60 -14 43 -12
-17 -25 -19 -87 -16 -137 5 -193 15 -197 32 -9 48 98 69 138 27 11 -12 22 -19
25 -16 10 10 -6 56 -25 73 -28 25 -90 29 -117 8z"/>
<path d="M5629 4695 c-3 -2 -59 -5 -125 -6 l-120 -1 4 -31 5 -30 171 6 c94 4
199 7 234 7 l62 0 0 30 0 30 -113 0 c-63 0 -116 -2 -118 -5z"/>
<path d="M3765 4675 c6 -2 27 -6 49 -10 22 -4 48 -17 62 -32 13 -14 24 -21 24
-15 0 5 -14 22 -31 36 -23 19 -41 26 -72 25 -23 0 -37 -2 -32 -4z"/>
<path d="M4065 4670 c-19 -8 -19 -9 2 -9 12 -1 25 4 28 9 7 12 -2 12 -30 0z"/>
<path d="M4293 4672 c-6 -4 15 -7 48 -7 66 0 95 -20 115 -78 l11 -32 7 48 c4
27 5 51 2 55 -3 3 -6 -8 -6 -24 l-1 -29 -22 27 c-34 41 -118 63 -154 40z"/>
<path d="M4500 4669 c0 -5 44 -9 97 -9 53 0 94 2 92 5 -10 9 -189 13 -189 4z"/>
<path d="M4760 4669 c0 -5 17 -9 37 -9 20 0 33 3 29 7 -11 11 -66 12 -66 2z"/>
<path d="M4865 4670 c-16 -7 -11 -9 20 -9 29 -1 36 2 25 9 -17 11 -19 11 -45
0z"/>
<path d="M5149 4669 c-10 -6 -7 -9 13 -9 23 0 29 -7 46 -52 30 -83 32 -85 25
-43 -11 75 -51 125 -84 104z"/>
<path d="M3708 4659 c-10 -5 -18 -15 -18 -21 0 -7 7 -5 18 4 9 9 24 18 32 21
13 5 13 5 0 6 -8 0 -23 -4 -32 -10z"/>
<path d="M3582 4635 c0 -16 2 -22 5 -12 2 9 2 23 0 30 -3 6 -5 -1 -5 -18z"/>
<path d="M4119 4615 c8 -24 17 -42 19 -40 6 5 -18 74 -27 80 -5 2 -1 -15 8
-40z"/>
<path d="M4250 4650 c-8 -5 -12 -12 -9 -15 4 -3 12 1 19 10 14 17 11 19 -10 5z"/>
<path d="M4729 4638 c-2 -7 -2 -83 2 -168 l5 -155 2 168 c2 154 0 187 -9 155z"/>
<path d="M5097 4643 c-4 -3 -7 -13 -7 -22 1 -13 3 -13 11 2 11 19 8 33 -4 20z"/>
<path d="M4007 4633 c-4 -3 -7 -13 -7 -22 1 -13 3 -13 11 2 11 19 8 33 -4 20z"/>
<path d="M4971 4635 c0 -5 6 -19 14 -29 8 -11 15 -15 15 -10 0 6 -7 19 -15 30
-8 10 -14 15 -14 9z"/>
<path d="M2898 4603 l-98 -4 0 -29 0 -30 363 5 c394 5 405 3 162 -41 -77 -14
-143 -28 -147 -32 -12 -12 3 -52 21 -52 9 0 93 16 186 34 94 19 172 33 175 31
3 -2 6 26 7 61 l2 64 -287 -2 c-158 -1 -331 -4 -384 -5z"/>
<path d="M3665 4599 c-4 -6 -5 -12 -2 -15 2 -3 7 2 10 11 7 17 1 20 -8 4z"/>
<path d="M5398 4576 l4 -31 378 0 c208 0 381 3 385 7 4 4 4 19 1 33 l-7 26
-382 -2 -383 -1 4 -32z"/>
<path d="M3761 4591 c-16 -10 -8 -41 11 -41 9 0 9 3 -2 10 -12 7 -12 12 -2 22
10 10 17 10 33 -1 18 -10 20 -10 17 1 -6 16 -38 21 -57 9z"/>
<path d="M3900 4591 c0 -6 4 -13 10 -16 6 -3 7 1 4 9 -7 18 -14 21 -14 7z"/>
<path d="M4310 4585 c-18 -22 3 -46 23 -26 8 8 8 11 1 9 -7 -2 -13 2 -14 7 -3
24 32 14 48 -14 9 -17 23 -33 30 -36 7 -3 10 -1 7 4 -3 5 3 12 12 14 10 2 8 3
-4 2 -13 -1 -23 2 -23 6 0 14 -39 49 -54 49 -7 0 -19 -7 -26 -15z"/>
<path d="M4525 4578 c11 -6 23 -16 27 -22 5 -6 8 -1 8 12 0 17 -6 22 -27 22
-26 -1 -27 -1 -8 -12z"/>
<path d="M4660 4580 c0 -5 5 -10 10 -10 6 0 10 5 10 10 0 6 -4 10 -10 10 -5 0
-10 -4 -10 -10z"/>
<path d="M4810 4580 c0 -5 5 -10 10 -10 6 0 10 5 10 10 0 6 -4 10 -10 10 -5 0
-10 -4 -10 -10z"/>
<path d="M5060 4530 c-6 -23 -9 -44 -7 -46 2 -3 9 14 15 38 6 23 9 44 7 46 -2
2 -9 -15 -15 -38z"/>
<path d="M3976 4545 c-3 -9 -6 -22 -5 -28 0 -7 5 -1 10 12 5 13 8 26 5 28 -2
2 -6 -3 -10 -12z"/>
<path d="M4643 4525 c0 -22 2 -30 4 -17 2 12 2 30 0 40 -3 9 -5 -1 -4 -23z"/>
<path d="M3820 4540 c0 -9 72 -42 78 -36 2 3 -8 11 -24 17 -27 10 -28 12 -9
20 16 6 13 8 -12 6 -18 -1 -33 -4 -33 -7z"/>
<path d="M4060 4545 c-1 -5 -3 -18 -5 -28 -2 -9 1 -15 6 -11 5 3 9 -5 9 -17 0
-18 -2 -19 -15 -9 -12 10 -15 10 -15 -4 0 -11 8 -15 24 -14 22 2 24 6 19 33
-6 33 -22 66 -23 50z"/>
<path d="M4817 4536 c-5 -13 1 -16 31 -16 20 0 44 5 52 10 11 7 4 9 -25 5 -22
-3 -42 0 -46 6 -4 7 -8 5 -12 -5z"/>
<path d="M4231 4518 c15 -28 38 -52 45 -46 2 3 -5 13 -16 23 -11 10 -20 24
-20 32 0 7 -5 13 -10 13 -7 0 -6 -8 1 -22z"/>
<path d="M4985 4520 c-3 -11 -17 -28 -30 -38 -13 -11 -21 -22 -18 -26 9 -8 24
-8 21 2 -2 4 7 17 20 30 12 12 22 29 22 37 0 21 -7 19 -15 -5z"/>
<path d="M5140 4525 c0 -8 5 -15 10 -15 6 0 10 -10 10 -22 -1 -21 -2 -22 -14
-5 -13 17 -14 16 -19 -3 -4 -17 0 -20 24 -20 34 0 34 0 15 45 -16 37 -26 45
-26 20z"/>
<path d="M4150 4520 c0 -5 5 -10 11 -10 5 0 7 5 4 10 -3 6 -8 10 -11 10 -2 0
-4 -4 -4 -10z"/>
<path d="M3680 4507 c0 -10 8 -17 18 -17 9 0 13 4 7 8 -5 4 -13 11 -17 16 -5
5 -8 2 -8 -7z"/>
<path d="M4436 4499 c12 -13 25 -34 29 -47 4 -13 9 -22 11 -19 10 9 -20 68
-40 79 l-21 11 21 -24z"/>
<path d="M5240 4515 c0 -5 5 -17 10 -25 5 -8 10 -10 10 -5 0 6 -5 17 -10 25
-5 8 -10 11 -10 5z"/>
<path d="M3949 4464 c-9 -19 -13 -34 -9 -34 9 0 35 59 29 64 -2 2 -11 -12 -20
-30z"/>
<path d="M4553 4450 c0 -30 2 -43 4 -27 2 15 2 39 0 55 -2 15 -4 2 -4 -28z"/>
<path d="M3907 4444 c3 -27 7 -51 9 -53 8 -9 3 75 -5 88 -5 8 -7 -5 -4 -35z"/>
<path d="M4170 4476 c0 -17 16 -30 23 -19 3 5 -1 14 -9 21 -12 10 -14 10 -14
-2z"/>
<path d="M5406 4464 c3 -16 6 -29 7 -30 1 -1 82 -17 180 -35 154 -29 179 -31
188 -19 23 36 7 44 -141 72 -80 15 -166 31 -192 34 l-47 7 5 -29z"/>
<path d="M3715 4471 c3 -5 -5 -12 -17 -14 -20 -4 -19 -4 5 -6 18 -1 27 4 27
14 0 8 -5 15 -11 15 -5 0 -8 -4 -4 -9z"/>
<path d="M4643 4440 c0 -25 2 -35 4 -22 2 12 2 32 0 45 -2 12 -4 2 -4 -23z"/>
<path d="M3558 4464 c-3 -3 -68 -27 -144 -54 -77 -26 -192 -67 -256 -90 l-117
-42 1 -46 c1 -26 3 -40 5 -31 4 18 5 18 283 118 107 38 203 72 213 76 14 6 17
2 17 -22 0 -29 -5 -32 -137 -88 -76 -32 -142 -62 -147 -66 -6 -5 -5 -18 2 -33
l11 -25 138 60 c75 33 143 57 151 54 8 -3 10 0 6 7 -7 12 -15 81 -17 151 -1
20 -2 37 -3 37 0 0 -3 -3 -6 -6z"/>
<path d="M4270 4459 c-23 -8 -22 -8 6 -4 17 2 43 -3 58 -11 16 -7 32 -11 37
-8 17 10 9 -25 -8 -36 -17 -11 -17 -11 0 -6 10 3 21 6 23 6 2 0 4 9 4 20 0 30
-75 54 -120 39z"/>
<path d="M5021 4425 c-12 -49 -25 -51 -42 -8 -5 14 -12 23 -15 20 -3 -3 5 -25
19 -48 l26 -42 16 57 c9 32 15 60 12 62 -2 3 -10 -16 -16 -41z"/>
<path d="M3790 4443 c35 -19 52 -21 34 -4 -5 5 -22 13 -39 16 -30 7 -30 7 5
-12z"/>
<path d="M2813 4430 c1 -22 17 -28 17 -6 0 11 20 14 90 15 98 1 88 8 103 -64
3 -11 5 1 6 28 l1 47 -109 0 c-104 0 -110 -1 -108 -20z"/>
<path d="M3740 4442 c0 -25 21 -52 40 -52 11 0 20 4 20 9 0 5 -8 8 -17 7 -9 0
-23 10 -30 24 -7 14 -13 19 -13 12z"/>
<path d="M4828 4443 c13 -3 26 -11 29 -19 3 -8 9 -14 14 -14 6 0 5 9 -1 20 -7
13 -20 20 -38 19 -24 -2 -25 -2 -4 -6z"/>
<path d="M5941 4383 c2 -70 6 -63 11 20 2 26 0 47 -4 47 -5 0 -7 -30 -7 -67z"/>
<path d="M6140 4423 c5 -16 11 -37 13 -48 3 -11 5 1 6 28 1 35 -3 47 -13 47
-12 0 -13 -6 -6 -27z"/>
<path d="M1408 4398 c-13 -24 -32 -56 -42 -73 l-19 -30 26 30 c14 17 33 46 43
65 11 19 23 38 29 42 6 5 6 8 -2 8 -6 0 -22 -19 -35 -42z"/>
<path d="M1528 4433 c7 -3 16 -2 19 1 4 3 -2 6 -13 5 -11 0 -14 -3 -6 -6z"/>
<path d="M1568 4433 c7 -3 16 -2 19 1 4 3 -2 6 -13 5 -11 0 -14 -3 -6 -6z"/>
<path d="M1608 4433 c6 -2 18 -2 25 0 6 3 1 5 -13 5 -14 0 -19 -2 -12 -5z"/>
<path d="M1708 4433 c12 -2 30 -2 40 0 9 3 -1 5 -23 4 -22 0 -30 -2 -17 -4z"/>
<path d="M1778 4393 c5 -83 9 -90 11 -20 0 37 -2 67 -7 67 -4 0 -6 -21 -4 -47z"/>
<path d="M1910 4383 c0 -163 51 -489 101 -651 131 -424 334 -771 629 -1076
329 -340 752 -587 1200 -701 870 -221 1770 14 2420 632 474 451 760 1073 797
1736 l6 117 -385 0 -385 0 -7 -112 c-12 -218 -75 -452 -176 -663 -249 -516
-721 -879 -1288 -992 -120 -24 -161 -27 -332 -27 -163 -1 -216 3 -320 22 -621
115 -1128 531 -1366 1120 -69 172 -123 428 -124 585 l0 67 -385 0 -385 0 0
-57z m116 -243 c6 -6 38 -15 72 -20 70 -12 112 -26 112 -38 0 -4 -34 -27 -75
-51 -53 -30 -75 -48 -75 -62 0 -10 3 -19 8 -19 26 2 126 31 137 40 20 17 30
-10 30 -82 0 -39 4 -58 12 -58 12 0 36 -68 49 -138 4 -20 15 -48 25 -61 25
-31 24 -58 -2 -72 -20 -10 -21 -9 -14 20 3 17 4 35 0 40 -11 20 -35 -2 -41
-37 -13 -72 -65 -95 -103 -46 -25 32 -28 82 -6 91 21 7 32 -4 17 -19 -16 -16
-15 -43 2 -57 11 -10 17 -7 30 11 9 12 16 31 16 41 0 11 11 32 25 49 22 26 34
68 20 68 -3 0 -35 -7 -70 -16 -41 -10 -65 -22 -65 -30 0 -28 -19 -13 -29 24
-14 49 -14 57 3 43 11 -9 29 -8 80 6 84 22 87 45 11 74 l-50 19 -32 -34 c-17
-19 -34 -32 -37 -28 -14 13 -4 44 24 76 17 19 27 36 23 39 -13 8 -53 -11 -53
-25 0 -31 -19 13 -29 66 -15 81 -14 97 4 90 21 -9 44 13 38 35 -6 23 -37 33
-52 18 -13 -13 -16 -10 -25 26 -7 28 2 35 20 17z m4791 -39 c44 -44 86 -60
115 -42 17 11 18 9 12 -31 -8 -53 -9 -54 -29 -34 -19 19 -54 19 -110 2 -60
-18 -51 -38 25 -58 36 -10 74 -15 84 -12 16 5 18 3 11 -12 -4 -11 -10 -27 -12
-37 -4 -11 -9 -14 -17 -9 -14 12 -86 35 -91 30 -3 -2 18 -22 45 -43 28 -22 50
-43 50 -47 0 -4 -27 -10 -60 -14 -33 -4 -62 -10 -65 -14 -2 -4 16 -11 40 -17
25 -6 45 -6 45 -2 0 5 5 9 11 9 7 0 9 -10 4 -27 -8 -33 -25 -55 -25 -32 0 18
-122 62 -146 52 -14 -5 -16 -2 -11 18 4 13 7 27 7 30 0 4 29 10 65 14 36 3 65
10 65 13 0 4 -21 25 -46 47 l-46 41 7 62 c4 34 11 62 16 62 5 0 9 -4 9 -9 0
-5 10 -7 23 -4 51 11 53 13 27 33 -14 11 -33 20 -44 20 -12 0 -16 5 -12 16 3
9 6 20 6 25 0 15 6 11 47 -30z m-97 -369 c0 -4 -9 -13 -20 -20 -27 -16 -26
-48 2 -55 30 -8 41 1 33 30 -5 22 -3 24 17 18 32 -10 33 -13 15 -33 -23 -25
-22 -28 13 -40 26 -10 31 -8 41 10 8 15 8 27 0 44 -8 19 -8 24 2 24 31 0 34
-21 13 -90 -19 -64 -36 -90 -36 -57 0 17 -124 61 -146 53 -14 -5 -16 -1 -11
23 12 60 35 101 56 101 12 0 21 -3 21 -8z m15 -168 c30 -20 46 -65 36 -101
-18 -61 -85 -183 -95 -173 -16 16 -53 12 -60 -6 -7 -19 10 -44 30 -44 19 0 17
-13 -6 -43 -11 -14 -20 -30 -20 -36 0 -21 -61 -80 -90 -86 -33 -7 -84 15 -100
44 -30 58 17 173 64 155 24 -9 20 -18 -14 -31 -25 -10 -30 -17 -30 -46 0 -44
37 -77 86 -77 42 0 65 30 57 74 l-6 31 21 -19 c40 -35 22 2 -26 56 -54 59 -76
94 -64 102 4 3 26 1 48 -4 21 -5 61 -10 89 -12 40 -2 50 0 53 14 2 13 -12 24
-54 43 -31 14 -65 25 -75 25 -11 0 -19 5 -19 10 0 22 51 109 72 124 29 20 72
20 103 0z m-4501 -63 c19 -29 -29 -60 -64 -41 -28 15 -25 28 5 22 18 -3 25 0
25 12 0 17 25 22 34 7z m195 -87 c18 -23 29 -64 17 -64 -2 0 -11 -3 -20 -6
-13 -5 -15 -1 -10 24 4 19 1 32 -7 37 -17 11 -39 -22 -39 -61 0 -33 -28 -64
-58 -64 -44 0 -84 99 -46 114 22 8 31 -1 16 -16 -17 -17 -15 -48 4 -55 21 -8
44 22 44 56 0 58 63 80 99 35z m53 -123 c13 -11 43 -51 66 -90 43 -73 49 -87
32 -76 -15 9 -132 -76 -126 -92 10 -24 -12 -14 -33 16 -25 35 -26 41 -4 41 25
0 123 71 123 89 0 12 -3 12 -12 3 -20 -20 -27 -13 -21 22 4 29 1 37 -21 51
-32 21 -68 14 -102 -20 -31 -31 -31 -70 1 -91 13 -8 29 -12 36 -8 7 4 10 2 7
-7 -3 -8 -14 -15 -25 -17 -25 -4 -60 41 -69 88 -16 80 84 141 148 91z m162
-228 c41 -52 42 -56 21 -73 -13 -11 -15 -9 -15 13 0 13 -7 30 -15 37 -21 18
-61 -16 -44 -37 6 -7 19 -13 28 -13 12 -1 10 -6 -9 -21 -24 -20 -25 -20 -28
-3 -6 30 -18 37 -41 22 -35 -21 -21 -68 21 -68 23 0 23 -16 1 -25 -18 -6 -44
18 -96 89 -18 26 -19 29 -3 23 20 -8 126 67 126 89 0 25 17 15 54 -33z m531
29 c17 -10 36 -31 44 -45 13 -24 12 -29 -4 -47 -26 -28 -38 -25 -30 9 9 41
-25 77 -56 60 -17 -9 -20 -17 -15 -47 20 -122 20 -126 -10 -156 -24 -24 -35
-27 -67 -23 -41 6 -93 45 -107 82 -5 13 -2 30 8 48 25 42 40 34 35 -16 -4 -32
-1 -48 12 -60 44 -44 87 2 67 72 -18 57 -15 92 10 118 26 28 71 30 113 5z
m3266 -32 c37 -11 74 -17 83 -14 22 9 19 -6 -8 -39 -20 -25 -24 -26 -36 -13
-16 20 -34 20 -49 2 -16 -19 3 -58 24 -50 18 7 19 -5 1 -28 -15 -20 -26 -23
-26 -7 0 5 -20 39 -45 75 -47 67 -59 110 -27 100 9 -3 47 -15 83 -26z m-393
-103 c32 8 28 -2 -19 -45 -48 -43 -65 -52 -56 -29 7 18 -26 47 -53 47 -9 0
-27 -11 -39 -24 -22 -23 -22 -25 -6 -55 12 -25 21 -31 36 -26 29 9 23 -7 -16
-45 -35 -34 -39 -33 -36 7 1 11 -20 72 -48 133 -38 87 -48 117 -41 135 8 22
10 22 132 -41 84 -43 130 -61 146 -57z m-3323 -42 c-4 -22 -9 -56 -12 -75 l-6
-35 32 29 c17 17 31 39 31 50 0 18 1 18 25 -4 29 -28 32 -40 7 -40 -9 0 -42
-20 -72 -45 -58 -47 -85 -57 -76 -27 12 40 27 145 21 150 -9 9 -76 -61 -71
-74 9 -23 -7 -23 -25 0 -23 29 -24 36 -3 36 21 0 114 80 114 98 0 12 4 12 21
-3 16 -16 19 -27 14 -60z m630 13 c48 -34 56 -48 28 -48 -15 0 -63 -58 -63
-75 0 -7 81 -65 91 -65 16 0 50 70 44 90 -9 27 0 25 57 -11 52 -34 60 -49 26
-49 -33 -1 -152 -175 -137 -201 15 -28 -4 -24 -56 13 -44 31 -61 56 -30 44 10
-4 25 9 45 36 17 22 30 44 30 48 0 7 -91 73 -94 68 -1 -2 -15 -20 -30 -42 -25
-33 -27 -42 -17 -58 21 -33 5 -31 -53 8 -56 37 -74 61 -37 49 28 -9 154 166
145 201 -8 31 -3 30 51 -8z m2905 18 c0 -14 87 -100 110 -108 12 -5 9 -12 -12
-34 -20 -20 -28 -24 -28 -13 0 9 -10 25 -23 37 l-23 22 -23 -24 c-28 -29 -22
-53 14 -62 30 -7 30 -12 6 -41 -18 -21 -49 -33 -37 -15 8 13 -100 115 -113
108 -22 -14 -10 11 18 38 29 28 29 28 33 6 1 -13 11 -28 20 -34 26 -16 68 26
52 52 -6 9 -21 18 -33 20 -26 4 -26 9 2 38 25 27 37 30 37 10z m-626 -43 c-4
-22 7 -47 52 -115 38 -60 62 -88 75 -88 32 0 21 -17 -32 -50 -50 -30 -73 -34
-51 -8 7 10 3 25 -15 56 -14 23 -30 42 -36 42 -5 0 -30 -12 -54 -26 l-44 -26
24 -41 c18 -30 33 -43 51 -45 14 -2 26 -6 26 -10 0 -4 -25 -22 -56 -41 -54
-32 -79 -36 -55 -7 10 12 1 32 -47 108 -40 63 -66 94 -81 96 -32 5 -26 15 28
50 58 38 63 39 56 9 -4 -15 2 -37 15 -60 21 -35 23 -36 48 -22 15 8 38 23 51
33 l24 19 -22 36 c-15 24 -31 37 -49 39 -26 3 -24 5 28 40 30 20 58 37 62 37
4 1 5 -11 2 -26z m-2779 -93 c8 0 30 -16 50 -35 29 -30 33 -39 25 -55 -13 -24
-35 -27 -26 -4 4 9 -1 27 -9 40 -30 46 -102 21 -126 -43 -14 -37 12 -73 51
-73 34 0 40 -15 10 -25 -63 -20 -129 100 -86 157 18 24 68 49 84 43 8 -3 20
-5 27 -5z m3285 -34 c0 -4 -9 -6 -19 -3 -30 8 -61 -20 -61 -54 0 -38 48 -89
83 -89 30 0 54 26 59 65 3 30 3 30 16 8 16 -29 4 -53 -40 -84 -63 -45 -140
-16 -154 56 -11 61 58 146 98 121 10 -6 18 -15 18 -20z m-3090 -142 c0 -6 -7
-17 -15 -24 -13 -11 -15 -9 -15 13 0 13 -7 31 -16 38 -14 11 -19 9 -34 -11
-21 -28 -18 -40 11 -40 24 0 24 -12 -1 -35 -16 -14 -20 -15 -20 -4 0 8 -5 20
-12 27 -9 9 -16 8 -30 -5 -10 -9 -18 -21 -18 -28 0 -20 36 -46 54 -39 21 8 21
-12 -1 -24 -13 -8 -28 0 -70 37 -52 45 -67 69 -38 58 17 -7 105 91 105 117 0
13 13 7 50 -26 27 -24 49 -48 50 -54z m2245 56 c23 -44 18 -51 -20 -29 -38 23
-66 19 -102 -13 -29 -27 -36 -60 -22 -110 22 -83 103 -132 154 -94 16 12 17
17 6 45 -10 23 -20 31 -39 31 -35 0 -19 14 45 38 53 20 71 19 52 -4 -7 -9 -6
-22 6 -44 9 -18 14 -38 12 -45 -3 -7 -29 -24 -58 -39 -98 -49 -196 -29 -232
47 -32 66 -13 147 45 190 19 15 112 53 135 57 1 0 9 -13 18 -30z m-1538 -35
c-17 -118 -20 -235 -7 -250 22 -26 6 -26 -53 0 -54 24 -74 45 -42 45 8 0 15 6
15 13 0 6 3 21 6 32 4 16 -2 24 -30 38 -35 16 -36 16 -60 -10 -19 -20 -23 -30
-14 -40 18 -22 4 -24 -40 -6 -43 17 -55 33 -24 33 9 0 60 43 112 95 67 67 102
95 119 95 22 0 23 -2 18 -45z m2244 5 c12 -7 19 -21 19 -39 0 -30 25 -46 80
-53 l25 -3 -28 -19 c-26 -18 -30 -18 -69 -2 -23 8 -44 14 -46 11 -7 -7 20 -36
41 -44 17 -6 11 -14 -39 -54 -53 -42 -94 -62 -79 -38 10 17 -34 34 -51 20 -19
-15 -18 -49 1 -49 37 0 0 -31 -118 -98 -45 -26 -51 -27 -43 -7 7 19 -62 135
-81 135 -8 0 -12 4 -9 9 7 10 117 74 120 69 1 -2 8 -12 16 -22 14 -18 13 -19
-11 -13 -15 4 -33 1 -44 -7 -14 -10 -16 -16 -6 -34 15 -28 27 -28 41 -1 11 20
12 20 25 2 20 -26 18 -42 -4 -36 -27 7 -34 -12 -15 -42 13 -21 19 -23 36 -14
11 6 23 20 25 30 6 22 19 25 27 7 11 -24 -6 84 -19 121 -8 24 -10 43 -4 54 9
15 19 10 78 -33 38 -28 76 -50 85 -50 30 0 16 36 -34 90 -27 30 -50 55 -50 56
0 1 19 16 42 33 45 33 59 37 89 21z m-2021 -46 c8 -2 36 -49 63 -104 26 -55
51 -100 55 -100 5 0 14 30 21 67 11 59 10 69 -3 79 -9 6 -16 15 -16 19 0 7 53
0 93 -11 23 -7 22 -24 -3 -24 -21 0 -34 -34 -65 -173 -12 -53 -22 -77 -32 -77
-8 0 -38 50 -75 127 -67 138 -66 138 -88 19 -12 -62 -11 -70 4 -81 35 -26 9
-33 -58 -14 l-39 11 26 21 c20 17 30 43 48 121 20 92 21 100 6 111 -35 25 -7
29 63 9z m1000 -18 c0 -8 -5 -16 -12 -18 -10 -4 -10 -24 1 -96 19 -137 6 -168
-80 -192 -55 -16 -107 4 -126 47 -11 27 -43 166 -43 188 0 1 -10 6 -22 9 -34
10 -5 23 67 31 54 6 58 5 41 -9 -17 -14 -18 -19 -2 -107 17 -100 34 -129 76
-129 49 0 65 22 63 87 -1 32 -8 80 -15 108 -10 39 -18 51 -38 56 -22 6 -23 7
-6 14 16 7 69 21 89 24 4 1 7 -5 7 -13z m-1755 -76 c32 -22 64 -41 70 -43 6
-2 5 -10 -4 -20 -18 -22 -31 -21 -31 2 0 10 -6 21 -13 24 -17 6 -91 -108 -83
-128 7 -20 -3 -19 -44 7 -27 17 -31 23 -18 26 22 4 92 118 83 133 -4 6 -18 8
-31 5 -26 -7 -31 3 -12 22 16 16 15 17 83 -28z m1154 -25 c30 -83 54 -135 61
-135 4 0 27 40 51 90 l44 90 48 0 c48 0 64 -13 27 -23 -19 -5 -20 -14 -20
-121 0 -94 3 -118 15 -122 34 -13 11 -24 -50 -24 -51 0 -65 3 -65 15 0 8 6 15
14 15 11 0 15 19 18 80 2 44 1 80 -2 80 -3 0 -25 -42 -50 -93 -25 -51 -49 -90
-55 -87 -5 2 -28 49 -50 104 l-40 100 -3 -84 c-2 -67 0 -87 13 -96 25 -19 17
-24 -34 -24 -51 0 -76 14 -43 25 22 6 32 63 32 178 0 53 -3 67 -15 67 -8 0
-15 5 -15 11 0 6 20 9 51 7 l50 -3 18 -50z m-1369 -8 c0 -29 -18 -47 -47 -47
-28 0 -30 16 -4 23 14 3 18 11 14 26 -4 16 -1 21 16 21 15 0 21 -6 21 -23z
m366 -59 c30 -19 53 -39 51 -47 -4 -24 -22 -23 -32 1 -13 30 -37 33 -53 8 -15
-25 -8 -40 19 -40 23 0 24 -9 4 -36 -12 -16 -14 -17 -15 -3 0 25 -30 32 -46
12 -7 -10 -14 -23 -14 -30 0 -18 37 -35 60 -28 23 7 26 -7 6 -24 -11 -9 -29
-3 -82 29 -43 24 -61 40 -49 40 22 0 85 97 85 131 0 25 3 25 66 -13z m2222
-32 c3 -13 -1 -16 -22 -10 -19 4 -28 2 -32 -11 -8 -21 11 -35 50 -35 50 0 77
-39 60 -85 -9 -22 -61 -47 -84 -40 -14 4 -20 2 -20 -8 0 -8 -28 -26 -62 -41
-35 -15 -75 -34 -90 -42 -36 -19 -42 -18 -82 16 -19 17 -36 27 -39 23 -7 -12
11 -53 23 -53 23 0 8 -17 -25 -27 -33 -10 -35 -10 -35 11 0 30 -30 117 -47
137 -12 14 -9 18 30 33 54 20 76 20 99 -1 20 -18 23 -44 7 -60 -7 -7 -1 -18
21 -37 35 -29 52 -32 69 -12 9 10 4 29 -20 80 -17 36 -35 66 -41 66 -22 0 5
19 58 40 47 19 57 21 65 9 15 -23 10 -29 -18 -23 -16 2 -34 0 -42 -5 -12 -8
-12 -13 4 -37 l18 -28 18 23 c18 21 18 21 28 2 17 -30 13 -39 -14 -33 -28 5
-33 -13 -12 -42 18 -25 49 -17 65 17 12 24 17 26 51 21 29 -5 39 -2 44 10 9
23 -20 46 -58 46 -26 0 -39 6 -51 25 -15 23 -15 27 0 51 28 42 78 54 84 20z
m-2048 -54 c35 -17 48 -51 23 -59 -8 -3 -13 4 -13 15 0 10 -11 24 -25 30 -35
16 -38 16 -69 -13 -36 -33 -37 -97 -2 -120 19 -13 29 -14 45 -6 32 18 43 14
31 -9 -14 -26 -53 -26 -97 1 -40 25 -57 61 -48 106 12 65 84 91 155 55z m99
-43 l32 -11 -20 -20 c-29 -26 -26 -45 9 -63 28 -14 30 -14 41 6 6 12 8 30 6
41 -5 17 -2 19 16 13 12 -3 42 -12 66 -19 42 -11 46 -16 76 -81 l32 -70 12 43
c9 34 9 47 0 58 -14 17 -2 18 37 4 24 -9 25 -12 11 -23 -9 -7 -25 -43 -35 -82
-11 -39 -25 -70 -32 -70 -6 0 -27 36 -45 80 -19 45 -36 73 -39 65 -26 -79 -27
-91 -16 -105 15 -18 3 -19 -36 -5 -24 9 -25 12 -11 23 14 11 47 104 47 134 0
7 -7 13 -16 13 -20 0 -67 -106 -61 -138 3 -17 1 -22 -10 -18 -8 4 -26 9 -39
12 -28 7 -30 12 -10 28 8 6 18 23 21 37 6 23 2 28 -26 38 -38 13 -51 2 -47
-39 3 -30 -7 -33 -49 -18 -31 11 -31 12 -13 25 11 8 20 18 20 24 0 5 9 29 21
54 12 25 19 52 15 60 -7 18 1 19 43 4z m469 -135 c50 -32 49 -124 -1 -159 -45
-31 -138 -9 -153 37 -33 106 62 181 154 122z m912 11 c7 -8 9 -22 6 -32 -4 -9
-1 -20 6 -25 22 -14 30 -9 26 19 -2 21 2 28 25 36 33 11 47 2 25 -16 -8 -6
-20 -27 -26 -44 -9 -28 -8 -34 7 -42 10 -6 29 -8 42 -5 l24 6 -25 -22 c-15
-14 -33 -20 -48 -17 -14 3 -39 -4 -59 -15 -27 -17 -39 -19 -58 -10 -31 15 -40
47 -21 77 10 15 12 26 6 30 -14 9 -13 48 2 63 17 17 53 15 68 -3z m-172 -22
c-25 -29 -49 -103 -42 -127 4 -11 14 -26 23 -33 15 -11 15 -12 0 -13 -9 0 -30
-3 -47 -6 -30 -6 -30 -6 -25 32 4 34 0 46 -34 89 -34 44 -38 47 -41 28 -4 -27
-8 -28 -28 -8 -38 38 -94 4 -94 -57 0 -60 67 -117 84 -72 4 10 -1 25 -10 35
-16 18 -15 19 22 19 40 0 40 0 36 -35 -4 -31 -9 -36 -43 -46 -53 -16 -108 4
-130 49 l-17 33 -10 -30 c-21 -59 -115 -78 -164 -34 -19 17 -20 17 -30 -1 -9
-15 -18 -17 -71 -11 -74 9 -82 12 -66 31 7 9 13 47 13 89 1 80 3 82 54 69 18
-5 20 -9 11 -20 -6 -8 -14 -43 -16 -79 -6 -73 7 -89 53 -65 18 10 24 22 24 47
0 51 24 90 65 103 51 17 101 -2 122 -46 l17 -34 15 31 c8 18 28 37 45 44 44
18 198 26 192 10 -2 -7 4 -25 14 -41 l19 -28 11 28 c6 16 8 37 5 47 -5 16 -1
19 26 19 30 0 31 -1 17 -17z"/>
<path d="M2104 4089 c-9 -16 2 -22 21 -11 15 8 16 10 1 15 -8 3 -18 2 -22 -4z"/>
<path d="M2180 3931 c-29 -8 -34 -34 -7 -39 21 -4 47 15 47 34 0 15 -3 15 -40
5z"/>
<path d="M6635 3528 c-21 -12 -35 -28 -35 -41 0 -10 100 -57 123 -57 45 0 32
69 -18 93 -42 20 -44 20 -70 5z"/>
<path d="M6573 3303 c9 -9 20 -13 24 -9 4 4 1 11 -7 16 -25 16 -35 11 -17 -7z"/>
<path d="M6390 3015 c7 -8 16 -12 21 -9 13 8 1 24 -18 24 -13 0 -13 -3 -3 -15z"/>
<path d="M5810 2984 c0 -4 24 -44 37 -63 4 -5 33 20 33 28 0 4 -16 15 -35 24
-19 9 -35 14 -35 11z"/>
<path d="M3656 2601 l-29 -30 24 -9 c21 -8 25 -6 32 20 12 46 4 52 -27 19z"/>
<path d="M5931 2631 c-9 -6 -6 -16 13 -37 21 -24 27 -26 35 -15 18 28 -21 69
-48 52z"/>
<path d="M5820 2470 c6 -11 15 -18 21 -14 6 4 6 11 -2 20 -17 21 -31 17 -19
-6z"/>
<path d="M5251 2221 c14 -40 42 -42 37 -3 -2 19 -9 28 -25 30 -21 3 -22 1 -12
-27z"/>
<path d="M4020 2140 c-16 -30 -16 -95 -1 -114 7 -9 24 -16 38 -16 33 0 59 60
47 110 -8 30 -14 35 -41 38 -24 2 -34 -2 -43 -18z"/>
<path d="M4980 2156 c0 -9 7 -16 16 -16 17 0 14 22 -4 28 -7 2 -12 -3 -12 -12z"/>
<path d="M4980 2081 c0 -24 14 -41 34 -41 32 0 39 11 19 32 -17 19 -53 25 -53
9z"/>
<path d="M4374 2105 c-12 -18 -15 -38 -11 -67 7 -51 27 -73 60 -64 57 14 45
156 -13 156 -11 0 -27 -11 -36 -25z"/>
<path d="M3651 4424 c0 -11 3 -14 6 -6 3 7 2 16 -1 19 -3 4 -6 -2 -5 -13z"/>
<path d="M4190 4408 c14 -48 32 -79 44 -75 6 3 18 -1 26 -9 8 -7 29 -15 45
-19 19 -4 6 5 -32 25 -35 18 -63 38 -63 47 0 8 5 11 12 7 8 -5 9 -2 5 10 -4
10 -7 21 -8 24 0 4 -4 -2 -9 -13 -8 -19 -9 -19 -9 2 -1 12 -5 24 -10 28 -6 3
-6 -7 -1 -27z"/>
<path d="M7201 4413 c1 -23 2 -24 6 -6 2 12 12 24 21 26 12 3 10 5 -5 6 -19 1
-23 -4 -22 -26z"/>
<path d="M7375 4434 c45 -7 183 -9 178 -2 -2 5 -48 7 -101 7 -53 -1 -88 -3
-77 -5z"/>
<path d="M4312 4404 c10 -10 20 -16 22 -13 3 3 -5 11 -17 18 -21 13 -21 12 -5
-5z"/>
<path d="M5280 4408 c0 -4 5 -19 12 -35 6 -15 10 -34 9 -40 -1 -8 4 -10 14 -7
17 7 21 24 5 24 -5 0 -10 6 -10 13 0 13 -29 58 -30 45z"/>
<path d="M4456 4375 c-4 -14 -21 -34 -39 -45 -20 -12 -26 -20 -15 -20 19 0 68
55 68 76 0 22 -7 16 -14 -11z"/>
<path d="M5398 4370 c5 -34 -22 -23 327 -125 159 -47 180 -55 186 -76 5 -17 7
-8 8 28 l1 51 -47 16 c-27 8 -104 31 -173 51 -69 20 -163 47 -209 61 -46 13
-86 24 -90 24 -4 0 -6 -13 -3 -30z"/>
<path d="M4010 4368 c-10 -20 -9 -21 2 -7 8 9 22 19 33 22 18 4 18 5 -2 6 -14
1 -26 -7 -33 -21z"/>
<path d="M4116 4360 c9 -16 17 -30 19 -30 2 0 -1 14 -6 30 -6 17 -15 30 -19
30 -5 0 -2 -13 6 -30z"/>
<path d="M4883 4375 c0 -8 3 -13 5 -10 3 3 11 -3 19 -13 11 -15 12 -13 2 11
-13 30 -26 36 -26 12z"/>
<path d="M5097 4377 c-4 -10 2 -13 19 -9 33 6 41 22 11 22 -14 0 -27 -6 -30
-13z"/>
<path d="M5183 4383 c9 -2 17 -12 17 -21 0 -9 8 -26 17 -37 14 -18 15 -18 9
-2 -3 11 -9 30 -12 43 -4 17 -13 24 -28 23 -16 -1 -17 -2 -3 -6z"/>
<path d="M3920 4371 c0 -7 -4 -10 -9 -7 -5 4 -7 -4 -3 -16 l5 -22 9 24 c5 12
6 25 3 28 -3 3 -5 0 -5 -7z"/>
<path d="M4641 4354 c0 -11 3 -14 6 -6 3 7 2 16 -1 19 -3 4 -6 -2 -5 -13z"/>
<path d="M2822 4325 c0 -47 14 -157 18 -135 3 17 2 25 -9 112 -6 46 -9 52 -9
23z"/>
<path d="M3680 4348 c0 -18 18 -34 28 -24 3 4 -2 14 -11 23 -16 16 -17 16 -17
1z"/>
<path d="M4815 4350 c3 -5 8 -10 11 -10 2 0 4 5 4 10 0 6 -5 10 -11 10 -5 0
-7 -4 -4 -10z"/>
<path d="M3861 4330 c-13 -11 -19 -20 -13 -20 5 0 20 9 33 20 13 10 20 19 14
19 -5 0 -21 -9 -34 -19z"/>
<path d="M5085 4340 c-3 -5 -1 -10 4 -10 6 0 11 5 11 10 0 6 -2 10 -4 10 -3 0
-8 -4 -11 -10z"/>
<path d="M3032 4310 c0 -14 2 -19 5 -12 2 6 2 18 0 25 -3 6 -5 1 -5 -13z"/>
<path d="M5387 4317 c-3 -7 -3 -25 0 -39 3 -18 -2 -33 -16 -47 -12 -12 -17
-21 -12 -21 6 0 12 4 15 9 3 5 62 -13 132 -40 69 -27 131 -49 139 -49 15 0 31
37 21 48 -4 3 -66 29 -139 57 -116 46 -132 54 -130 73 3 25 -2 29 -10 9z"/>
<path d="M3768 4303 c12 -2 30 -2 40 0 9 3 -1 5 -23 4 -22 0 -30 -2 -17 -4z"/>
<path d="M4588 4303 c6 -2 18 -2 25 0 6 3 1 5 -13 5 -14 0 -19 -2 -12 -5z"/>
<path d="M4958 4303 c6 -2 18 -2 25 0 6 3 1 5 -13 5 -14 0 -19 -2 -12 -5z"/>
<path d="M5932 4285 c0 -16 2 -22 5 -12 2 9 2 23 0 30 -3 6 -5 -1 -5 -18z"/>
<path d="M6135 4300 c-3 -5 -1 -10 4 -10 6 0 11 5 11 10 0 6 -2 10 -4 10 -3 0
-8 -4 -11 -10z"/>
<path d="M7191 4294 c0 -11 3 -14 6 -6 3 7 2 16 -1 19 -3 4 -6 -2 -5 -13z"/>
<path d="M7620 4305 c0 -2 9 -19 20 -37 23 -39 27 -30 5 12 -14 27 -25 38 -25
25z"/>
<path d="M1336 4273 c-6 -14 -5 -15 5 -6 7 7 10 15 7 18 -3 3 -9 -2 -12 -12z"/>
<path d="M7193 4225 c0 -27 2 -38 4 -22 2 15 2 37 0 50 -2 12 -4 0 -4 -28z"/>
<path d="M6124 4249 c-3 -6 -1 -16 5 -22 8 -8 11 -5 11 11 0 24 -5 28 -16 11z"/>
<path d="M1297 4213 c-7 -16 -24 -46 -36 -68 -13 -22 -16 -31 -7 -20 8 11 20
25 26 32 5 7 10 17 10 23 0 5 5 10 10 10 6 0 10 9 10 19 0 11 6 22 13 24 8 4
8 6 0 6 -6 1 -18 -11 -26 -26z"/>
<path d="M1792 4210 c0 -19 2 -27 5 -17 2 9 2 25 0 35 -3 9 -5 1 -5 -18z"/>
<path d="M3590 4235 c-5 -10 -76 -44 -353 -171 -106 -48 -130 -55 -138 -43
-15 24 -10 0 7 -34 9 -18 18 -33 19 -35 2 -2 113 47 249 109 167 76 243 116
237 123 -5 6 -11 22 -13 36 -2 14 -6 20 -8 15z"/>
<path d="M6122 4180 c0 -19 2 -27 5 -17 2 9 2 25 0 35 -3 9 -5 1 -5 -18z"/>
<path d="M5349 4178 c-1 -16 -3 -35 -3 -44 -1 -12 64 -45 239 -124 l240 -107
13 25 c12 20 11 25 -3 35 -9 7 -119 57 -245 112 -128 56 -231 107 -233 115 -3
8 -6 3 -8 -12z"/>
<path d="M3050 4150 c0 -16 4 -30 8 -30 5 0 7 14 4 30 -2 17 -6 30 -8 30 -2 0
-4 -13 -4 -30z"/>
<path d="M1795 4127 c2 -27 9 -56 15 -65 7 -12 8 -4 4 28 -10 66 -26 97 -19
37z"/>
<path d="M7700 4162 c0 -5 10 -17 22 -28 l21 -19 -18 28 c-18 28 -25 33 -25
19z"/>
<path d="M2841 4144 c0 -11 3 -14 6 -6 3 7 2 16 -1 19 -3 4 -6 -2 -5 -13z"/>
<path d="M3630 4141 c12 -24 13 -41 1 -41 -7 0 -177 -103 -189 -114 -6 -7 22
-46 33 -46 6 0 51 27 100 59 50 32 94 57 99 54 4 -3 1 5 -7 18 -8 13 -18 39
-22 57 -4 17 -11 32 -16 32 -6 0 -6 -8 1 -19z"/>
<path d="M7178 4147 c-5 -10 -8 -37 -7 -60 l1 -42 9 34 c12 40 9 97 -3 68z"/>
<path d="M6112 4120 c0 -14 2 -19 5 -12 2 6 2 18 0 25 -3 6 -5 1 -5 -13z"/>
<path d="M5901 4114 c0 -11 3 -14 6 -6 3 7 2 16 -1 19 -3 4 -6 -2 -5 -13z"/>
<path d="M5314 4106 c-6 -6 -16 -27 -22 -45 -14 -39 -20 -33 100 -106 77 -47
81 -48 94 -30 8 10 14 22 14 25 0 4 -43 35 -96 69 -82 52 -94 64 -84 76 15 18
10 28 -6 11z"/>
<path d="M3066 4083 c4 -16 11 -32 17 -38 6 -7 8 -2 3 15 -3 14 -6 31 -6 38 0
6 -5 12 -10 12 -6 0 -8 -11 -4 -27z"/>
<path d="M7745 4091 c4 -14 16 -34 26 -45 11 -11 19 -24 19 -30 0 -5 2 -7 6
-4 3 3 -9 28 -26 54 -18 27 -29 38 -25 25z"/>
<path d="M1201 4048 c-16 -29 -34 -58 -40 -65 -14 -15 -14 -26 -1 -18 6 4 20
25 31 48 12 22 28 47 35 55 14 13 19 32 9 32 -2 0 -18 -24 -34 -52z"/>
<path d="M2861 4085 c0 -5 7 -32 15 -60 l14 -50 -5 44 c-5 39 -25 92 -24 66z"/>
<path d="M6097 4070 c-5 -14 -10 -38 -12 -55 -4 -25 -2 -24 10 10 9 22 14 46
12 55 -2 9 -6 6 -10 -10z"/>
<path d="M5882 4040 c0 -14 2 -19 5 -12 2 6 2 18 0 25 -3 6 -5 1 -5 -13z"/>
<path d="M1825 3980 c6 -74 11 -102 25 -145 11 -34 10 -22 -16 130 l-14 80 5
-65z"/>
<path d="M3694 4026 c0 -8 -93 -85 -209 -171 -115 -86 -211 -160 -213 -164 -1
-4 7 -16 18 -26 14 -12 23 -15 32 -8 7 6 105 79 217 163 l205 153 18 -23 c10
-13 21 -20 25 -16 4 3 -4 14 -17 23 -38 27 -60 52 -60 68 0 8 -4 15 -9 15 -5
0 -8 -6 -7 -14z"/>
<path d="M7162 4020 c0 -14 2 -19 5 -12 2 6 2 18 0 25 -3 6 -5 1 -5 -13z"/>
<path d="M5860 3989 c0 -5 5 -7 10 -4 6 3 10 8 10 11 0 2 -4 4 -10 4 -5 0 -10
-5 -10 -11z"/>
<path d="M7810 3981 c5 -11 15 -23 21 -27 6 -3 3 5 -6 20 -20 30 -30 35 -15 7z"/>
<path d="M5226 3969 c-8 -12 -13 -26 -11 -30 3 -4 94 -74 203 -155 108 -81
203 -152 210 -157 9 -8 19 -4 34 11 12 12 20 23 17 25 -8 7 -333 251 -386 290
l-51 38 -16 -22z"/>
<path d="M2890 3962 c0 -7 4 -20 9 -30 5 -9 14 -28 20 -42 10 -24 10 -24 4 5
-7 34 -32 86 -33 67z"/>
<path d="M7146 3924 c-3 -26 -4 -49 -2 -52 3 -2 8 17 11 43 4 25 5 48 3 51 -3
2 -8 -17 -12 -42z"/>
<path d="M1121 3915 c-23 -40 -26 -49 -12 -40 12 7 43 67 37 72 -2 2 -13 -12
-25 -32z"/>
<path d="M5162 3920 c-12 -12 -22 -25 -22 -29 0 -5 -16 -16 -36 -26 -19 -9
-38 -23 -41 -31 -3 -8 -9 -11 -14 -8 -5 3 -9 0 -9 -5 0 -6 -12 -11 -27 -12
-17 0 -22 -3 -13 -6 8 -4 24 -18 35 -32 11 -14 87 -102 169 -196 82 -93 150
-171 151 -172 1 -2 11 7 23 20 l22 23 -61 70 c-34 38 -108 122 -166 187 -98
110 -118 147 -82 147 7 0 45 -27 86 -60 40 -33 77 -60 82 -60 6 0 16 10 22 22
13 24 19 16 -85 102 l-47 38 22 24 c27 29 21 32 -9 4z"/>
<path d="M6050 3930 c0 -5 5 -10 10 -10 6 0 10 5 10 10 0 6 -4 10 -10 10 -5 0
-10 -4 -10 -10z"/>
<path d="M3131 3914 c0 -11 3 -14 6 -6 3 7 2 16 -1 19 -3 4 -6 -2 -5 -13z"/>
<path d="M3734 3879 c-32 -23 -63 -45 -67 -49 -11 -10 9 -50 25 -50 13 0 138
89 138 98 -1 9 -26 42 -32 42 -3 0 -31 -18 -64 -41z"/>
<path d="M6045 3900 c-3 -5 -1 -10 4 -10 6 0 11 5 11 10 0 6 -2 10 -4 10 -3 0
-8 -4 -11 -10z"/>
<path d="M7879 3863 c12 -23 26 -45 32 -48 13 -8 -12 41 -36 70 -11 14 -10 7
4 -22z"/>
<path d="M3140 3885 c0 -5 5 -17 10 -25 5 -8 10 -10 10 -5 0 6 -5 17 -10 25
-5 8 -10 11 -10 5z"/>
<path d="M5812 3866 c-17 -37 -15 -45 4 -18 8 12 14 27 12 33 -2 6 -9 -1 -16
-15z"/>
<path d="M3876 3855 c4 -9 -29 -54 -88 -121 -262 -299 -268 -307 -251 -326 27
-30 -4 -59 317 307 34 38 69 77 79 87 13 14 14 18 3 18 -8 0 -23 11 -34 25
-22 28 -34 33 -26 10z"/>
<path d="M2931 3854 c-2 -21 71 -164 80 -158 5 3 2 12 -6 20 -8 9 -15 24 -15
34 0 10 -4 20 -9 22 -4 2 -18 23 -29 48 -11 25 -21 40 -21 34z"/>
<path d="M1071 3827 c-13 -21 -12 -21 5 -5 10 10 16 20 13 22 -3 3 -11 -5 -18
-17z"/>
<path d="M6016 3835 c-3 -8 -1 -15 4 -15 6 0 10 7 10 15 0 8 -2 15 -4 15 -2 0
-6 -7 -10 -15z"/>
<path d="M7122 3818 c-15 -48 -24 -98 -13 -73 17 41 33 97 28 101 -3 3 -10
-10 -15 -28z"/>
<path d="M3160 3832 c0 -5 7 -15 15 -22 8 -7 15 -9 15 -6 0 4 -7 14 -15 22 -8
9 -15 11 -15 6z"/>
<path d="M5785 3809 c-4 -6 -5 -12 -2 -15 2 -3 7 2 10 11 7 17 1 20 -8 4z"/>
<path d="M1046 3783 c-6 -14 -5 -15 5 -6 7 7 10 15 7 18 -3 3 -9 -2 -12 -12z"/>
<path d="M3935 3752 c-57 -79 -61 -90 -39 -107 10 -8 22 -15 25 -15 11 0 100
140 95 149 -3 5 -15 11 -26 14 -16 4 -29 -5 -55 -41z"/>
<path d="M7922 3795 c2 -5 11 -25 18 -42 8 -18 18 -33 22 -33 4 0 8 -7 8 -17
0 -9 3 -13 7 -10 7 8 -12 50 -41 87 -10 14 -17 21 -14 15z"/>
<path d="M1872 3770 c0 -24 25 -115 27 -95 0 6 -6 35 -14 65 -7 30 -13 44 -13
30z"/>
<path d="M3195 3775 c4 -11 9 -28 12 -37 3 -9 11 -19 18 -22 9 -3 6 8 -7 32
-26 45 -34 54 -23 27z"/>
<path d="M4954 3776 c-12 -10 -23 -11 -31 -5 -7 7 -13 6 -18 -1 -3 -5 0 -10 8
-10 8 0 36 -32 62 -70 26 -39 51 -73 55 -75 5 -3 18 3 30 13 l23 18 -47 64
c-25 35 -46 68 -46 72 0 12 -14 10 -36 -6z"/>
<path d="M5992 3765 c-17 -37 -14 -45 4 -12 9 16 14 31 11 33 -2 2 -9 -7 -15
-21z"/>
<path d="M5760 3760 c-6 -11 -8 -20 -6 -20 3 0 10 9 16 20 6 11 8 20 6 20 -3
0 -10 -9 -16 -20z"/>
<path d="M3901 3529 c-79 -132 -142 -241 -140 -243 10 -8 51 -27 53 -24 25 37
258 431 267 450 6 15 19 29 28 31 10 3 7 5 -7 6 -13 0 -31 5 -40 10 -14 7 -40
-29 -161 -230z"/>
<path d="M1012 3728 c-42 -71 -63 -113 -45 -89 24 32 75 121 69 121 -2 0 -13
-15 -24 -32z"/>
<path d="M4860 3739 c-14 -6 -33 -8 -42 -5 -10 2 -16 0 -12 -5 3 -5 13 -9 22
-9 11 -1 63 -74 147 -207 162 -258 155 -249 184 -234 15 8 20 18 16 28 -5 13
-181 293 -259 410 -23 36 -21 36 -56 22z"/>
<path d="M4215 3710 c17 -4 41 -8 55 -8 22 0 22 1 -5 8 -16 4 -41 8 -55 8 -22
0 -22 -1 5 -8z"/>
<path d="M4768 3713 c7 -3 16 -2 19 1 4 3 -2 6 -13 5 -11 0 -14 -3 -6 -6z"/>
<path d="M5948 3675 c-12 -25 -26 -45 -30 -45 -4 0 -8 -6 -8 -13 0 -7 -11 -29
-25 -49 -29 -43 -34 -62 -7 -27 21 27 83 134 94 161 15 36 -3 16 -24 -27z"/>
<path d="M4300 3700 c0 -5 17 -10 38 -9 33 1 34 2 12 9 -36 11 -50 11 -50 0z"/>
<path d="M4645 3700 c-18 -8 -17 -9 8 -9 15 -1 27 4 27 9 0 12 -8 12 -35 0z"/>
<path d="M5716 3686 c-11 -18 -13 -27 -4 -32 7 -4 8 -3 4 4 -4 7 -3 12 2 12 5
0 12 9 15 20 7 26 3 25 -17 -4z"/>
<path d="M3240 3694 c0 -6 7 -19 16 -30 14 -18 14 -18 3 6 -14 31 -19 36 -19
24z"/>
<path d="M3036 3633 c16 -29 31 -53 36 -53 4 0 5 7 2 15 -4 8 -10 15 -15 15
-5 0 -9 6 -9 13 0 6 -10 23 -21 37 -14 18 -12 10 7 -27z"/>
<path d="M4440 3670 c0 -5 -20 -10 -44 -10 -58 0 -168 -34 -191 -60 -24 -26
-22 -66 4 -94 l22 -23 -30 -31 c-17 -17 -31 -40 -31 -52 0 -29 38 -61 97 -81
l48 -16 0 -151 c0 -149 0 -151 23 -157 13 -3 27 -3 32 0 6 4 10 70 10 151 l0
144 95 0 95 0 0 -151 c0 -134 2 -150 16 -145 9 3 22 6 30 6 11 0 14 30 16 151
l3 152 53 17 c29 10 61 25 72 35 26 23 26 69 0 95 -25 25 -25 26 6 54 35 30
35 72 0 102 -32 28 -82 44 -163 51 -35 3 -63 10 -63 14 0 5 -22 9 -50 9 -27 0
-50 -4 -50 -10z m225 -91 c56 -14 65 -26 28 -40 -87 -33 -343 -30 -410 5 l-25
13 31 13 c73 30 273 35 376 9z m-16 -152 c112 -30 16 -62 -179 -61 -182 1
-271 33 -168 61 56 15 291 15 347 0z"/>
<path d="M7081 3664 c0 -11 3 -14 6 -6 3 7 2 16 -1 19 -3 4 -6 -2 -5 -13z"/>
<path d="M8001 3660 c14 -31 19 -36 19 -24 0 6 -7 19 -16 30 -14 18 -14 18 -3
-6z"/>
<path d="M1900 3654 c0 -7 7 -25 15 -40 8 -16 15 -22 15 -14 -1 18 -29 70 -30
54z"/>
<path d="M3280 3634 c0 -12 79 -118 91 -122 5 -2 6 -9 3 -14 -4 -7 -2 -8 4 -4
7 4 12 2 12 -4 0 -18 206 -211 233 -218 7 -2 -8 13 -33 34 -77 64 -204 196
-258 268 -29 38 -52 65 -52 60z"/>
<path d="M7063 3615 c-3 -9 -3 -18 -1 -21 3 -3 8 4 11 16 6 23 -1 27 -10 5z"/>
<path d="M5660 3600 c-6 -11 -8 -20 -6 -20 3 0 10 9 16 20 6 11 8 20 6 20 -3
0 -10 -9 -16 -20z"/>
<path d="M8030 3608 c0 -10 4 -18 9 -18 5 0 11 -10 13 -22 2 -13 6 -18 10 -12
4 5 -2 23 -13 40 -13 21 -19 24 -19 12z"/>
<path d="M935 3600 c-3 -5 -1 -10 4 -10 6 0 11 5 11 10 0 6 -2 10 -4 10 -3 0
-8 -4 -11 -10z"/>
<path d="M7046 3563 c-6 -14 -5 -15 5 -6 7 7 10 15 7 18 -3 3 -9 -2 -12 -12z"/>
<path d="M5622 3548 c-9 -12 -57 -65 -107 -118 -49 -52 -79 -86 -66 -75 55 44
211 215 197 215 -4 0 -14 -10 -24 -22z"/>
<path d="M903 3548 c-12 -16 -24 -48 -18 -48 2 0 11 14 20 30 16 31 15 40 -2
18z"/>
<path d="M3080 3559 c0 -3 11 -20 25 -39 14 -19 25 -29 25 -23 0 5 -11 23 -25
39 -14 16 -25 26 -25 23z"/>
<path d="M1939 3534 c6 -12 7 -24 4 -28 -3 -3 -1 -6 5 -6 16 0 15 12 -4 36
-15 18 -15 18 -5 -2z"/>
<path d="M8070 3538 c0 -9 5 -20 10 -23 13 -8 13 5 0 25 -8 13 -10 13 -10 -2z"/>
<path d="M7002 3446 c-18 -44 -35 -88 -36 -96 -2 -8 -1 -9 1 -2 3 6 9 12 14
12 5 0 8 3 7 8 -1 4 11 40 26 80 16 39 27 74 25 76 -2 2 -19 -33 -37 -78z"/>
<path d="M842 3441 c-26 -43 -28 -49 -12 -48 10 1 17 5 14 9 -3 4 5 25 16 48
28 55 19 50 -18 -9z"/>
<path d="M1960 3483 c0 -6 5 -24 12 -40 6 -15 11 -31 10 -35 -1 -5 3 -8 8 -8
6 0 10 3 10 8 -1 13 -39 87 -40 75z"/>
<path d="M3140 3473 c0 -6 8 -17 18 -24 16 -13 16 -13 2 6 -8 11 -16 22 -17
24 -2 2 -3 0 -3 -6z"/>
<path d="M8119 3454 c11 -14 17 -33 14 -42 -3 -9 -3 -14 2 -10 4 4 15 2 23 -4
7 -7 1 9 -14 35 -16 26 -33 47 -37 47 -5 0 1 -12 12 -26z"/>
<path d="M5810 3455 c-7 -9 -11 -17 -9 -20 3 -2 10 5 17 15 14 24 10 26 -8 5z"/>
<path d="M5775 3429 c4 -11 -12 -35 -49 -73 -30 -32 -56 -61 -58 -65 -2 -4
-38 -38 -80 -75 -43 -37 -78 -70 -78 -72 0 -21 159 125 227 209 44 53 53 71
44 80 -10 9 -11 8 -6 -4z"/>
<path d="M3180 3423 c0 -6 8 -17 18 -24 16 -13 16 -13 2 6 -8 11 -16 22 -17
24 -2 2 -3 0 -3 -6z"/>
<path d="M1564 3380 c-12 -5 -25 -14 -29 -20 -4 -7 7 -4 24 4 17 9 31 19 31
21 0 6 1 6 -26 -5z"/>
<path d="M1613 3355 c0 -22 2 -30 4 -17 2 12 2 30 0 40 -3 9 -5 -1 -4 -23z"/>
<path d="M2000 3385 c0 -5 5 -17 10 -25 5 -8 10 -10 10 -5 0 6 -5 17 -10 25
-5 8 -10 11 -10 5z"/>
<path d="M796 3363 c-6 -14 -5 -15 5 -6 7 7 10 15 7 18 -3 3 -9 -2 -12 -12z"/>
<path d="M8170 3371 c0 -6 4 -13 10 -16 6 -3 7 1 4 9 -7 18 -14 21 -14 7z"/>
<path d="M3240 3345 c13 -14 25 -25 27 -25 1 0 -3 11 -9 25 -6 14 -18 25 -26
25 -12 0 -10 -6 8 -25z"/>
<path d="M7358 3257 c4 -175 8 -195 10 -47 1 74 -2 140 -6 147 -4 6 -6 -39 -4
-100z"/>
<path d="M7446 3346 c10 -8 21 -12 24 -10 5 6 -21 24 -34 24 -6 0 -1 -6 10
-14z"/>
<path d="M1480 3330 c0 -5 7 -7 15 -4 8 4 15 8 15 10 0 2 -7 4 -15 4 -8 0 -15
-4 -15 -10z"/>
<path d="M8203 3313 c6 -16 14 -30 17 -33 19 -17 40 -62 34 -73 -5 -9 -4 -9 5
-1 9 8 3 26 -25 72 -39 66 -51 79 -31 35z"/>
<path d="M2025 3320 c3 -5 8 -10 11 -10 2 0 4 5 4 10 0 6 -5 10 -11 10 -5 0
-7 -4 -4 -10z"/>
<path d="M5390 3315 c-8 -9 -8 -15 -2 -15 12 0 26 19 19 26 -2 2 -10 -2 -17
-11z"/>
<path d="M7510 3311 c19 -11 39 -17 44 -14 5 3 -9 12 -30 19 -52 18 -56 17
-14 -5z"/>
<path d="M1445 3310 c-3 -5 -2 -10 4 -10 5 0 13 5 16 10 3 6 2 10 -4 10 -5 0
-13 -4 -16 -10z"/>
<path d="M6935 3290 c-20 -40 -36 -80 -30 -80 2 0 14 21 26 48 12 26 23 50 26
55 2 4 2 7 -1 7 -3 0 -12 -13 -21 -30z"/>
<path d="M3345 3242 c38 -40 71 -72 72 -72 2 0 -2 9 -9 20 -7 11 -16 20 -21
20 -4 0 -5 5 -1 12 4 6 3 8 -3 5 -12 -7 -36 18 -47 47 -3 10 -9 16 -13 12 -3
-3 -16 2 -27 11 -12 10 10 -15 49 -55z"/>
<path d="M753 3288 c-6 -7 -16 -24 -22 -38 -12 -24 -12 -24 4 -5 20 24 37 55
32 55 -3 0 -9 -6 -14 -12z"/>
<path d="M1396 3285 c-8 -9 -30 -21 -48 -27 -18 -6 -42 -20 -53 -30 -11 -10
-30 -21 -42 -24 -13 -4 -23 -11 -23 -16 0 -5 21 2 48 17 26 15 67 38 92 52 51
27 70 43 53 43 -6 0 -19 -7 -27 -15z"/>
<path d="M2040 3285 c0 -8 4 -15 10 -15 5 0 7 7 4 15 -4 8 -8 15 -10 15 -2 0
-4 -7 -4 -15z"/>
<path d="M5349 3283 c-13 -16 -12 -17 4 -4 16 13 21 21 13 21 -2 0 -10 -8 -17
-17z"/>
<path d="M1611 3254 c0 -11 3 -14 6 -6 3 7 2 16 -1 19 -3 4 -6 -2 -5 -13z"/>
<path d="M2062 3255 c4 -13 70 -149 74 -154 2 -2 7 -2 10 2 3 3 -3 19 -15 35
-12 17 -21 34 -21 39 0 4 -12 26 -26 48 -14 22 -24 36 -22 30z"/>
<path d="M5280 3235 c-19 -14 -31 -25 -27 -25 3 0 23 11 43 25 20 14 33 25 27
25 -5 0 -24 -11 -43 -25z"/>
<path d="M7615 3250 c3 -5 11 -10 16 -10 6 0 7 5 4 10 -3 6 -11 10 -16 10 -6
0 -7 -4 -4 -10z"/>
<path d="M3698 3221 c18 -17 37 -31 44 -31 6 0 9 1 7 3 -2 2 -22 15 -44 31
l-40 28 33 -31z"/>
<path d="M7670 3233 c0 -13 29 -38 35 -31 3 3 -4 13 -15 23 -11 10 -20 13 -20
8z"/>
<path d="M5205 3190 c-13 -6 -15 -9 -5 -9 8 0 22 4 30 9 18 12 2 12 -25 0z"/>
<path d="M6867 3158 c-43 -75 -48 -88 -37 -88 5 0 10 6 10 14 0 8 3 16 8 18 8
3 54 98 48 98 -2 0 -15 -19 -29 -42z"/>
<path d="M686 3173 c-6 -14 -5 -15 5 -6 7 7 10 15 7 18 -3 3 -9 -2 -12 -12z"/>
<path d="M1599 3140 c-5 -55 -4 -68 7 -58 3 3 4 30 2 59 l-3 54 -6 -55z"/>
<path d="M3772 3174 c10 -10 20 -16 22 -13 3 3 -5 11 -17 18 -21 13 -21 12 -5
-5z"/>
<path d="M1180 3159 l-25 -20 33 16 c17 8 32 18 32 20 0 10 -16 4 -40 -16z"/>
<path d="M5160 3160 c-8 -5 -10 -10 -5 -10 6 0 17 5 25 10 8 5 11 10 5 10 -5
0 -17 -5 -25 -10z"/>
<path d="M8290 3158 c0 -9 5 -20 11 -23 17 -11 18 -2 3 19 -12 17 -14 17 -14
4z"/>
<path d="M3810 3150 c0 -4 13 -11 30 -15 16 -3 40 -15 52 -25 24 -18 106 -45
114 -37 3 3 -7 8 -22 11 -15 4 -46 16 -68 27 -73 36 -106 48 -106 39z"/>
<path d="M7797 3149 c7 -7 15 -10 18 -7 3 3 -2 9 -12 12 -14 6 -15 5 -6 -5z"/>
<path d="M658 3128 c-22 -34 -39 -68 -35 -68 8 0 59 82 54 86 -2 3 -11 -6 -19
-18z"/>
<path d="M5100 3131 c0 -5 9 -7 20 -4 11 3 20 7 20 9 0 2 -9 4 -20 4 -11 0
-20 -4 -20 -9z"/>
<path d="M5485 3130 c-3 -5 -1 -10 4 -10 6 0 11 5 11 10 0 6 -2 10 -4 10 -3 0
-8 -4 -11 -10z"/>
<path d="M7850 3131 c0 -8 64 -51 77 -51 3 0 -11 14 -32 30 -41 33 -45 34 -45
21z"/>
<path d="M1013 3072 c-56 -31 -102 -60 -103 -64 0 -6 207 105 219 118 15 15
-27 -5 -116 -54z"/>
<path d="M3497 3109 c12 -12 25 -20 28 -17 3 3 -7 13 -22 23 l-28 17 22 -23z"/>
<path d="M5005 3089 c-27 -10 -37 -17 -21 -14 31 7 97 33 81 33 -5 0 -32 -8
-60 -19z"/>
<path d="M5450 3099 c0 -5 5 -7 10 -4 6 3 10 8 10 11 0 2 -4 4 -10 4 -5 0 -10
-5 -10 -11z"/>
<path d="M2167 3055 c9 -19 20 -35 25 -35 4 0 -2 16 -13 35 -12 19 -23 35 -25
35 -2 0 4 -16 13 -35z"/>
<path d="M5371 3050 c-24 -17 -49 -30 -54 -30 -6 0 -8 -3 -5 -6 8 -7 81 30 97
50 19 22 12 20 -38 -14z"/>
<path d="M4020 3060 c0 -6 7 -10 15 -10 8 0 15 2 15 4 0 2 -7 6 -15 10 -8 3
-15 1 -15 -4z"/>
<path d="M7950 3066 c0 -2 7 -6 15 -10 8 -3 15 -1 15 4 0 6 -7 10 -15 10 -8 0
-15 -2 -15 -4z"/>
<path d="M4918 3053 c7 -3 16 -2 19 1 4 3 -2 6 -13 5 -11 0 -14 -3 -6 -6z"/>
<path d="M6800 3038 c-12 -22 -12 -22 6 -6 10 10 15 20 12 24 -4 3 -12 -5 -18
-18z"/>
<path d="M596 3025 c-9 -14 -13 -25 -9 -25 10 0 36 40 30 46 -2 3 -12 -7 -21
-21z"/>
<path d="M3595 3042 c6 -5 28 -19 50 -32 32 -19 36 -19 20 -4 -11 11 -33 25
-50 32 -16 8 -25 9 -20 4z"/>
<path d="M7368 2895 c3 -88 6 -162 8 -164 7 -8 2 234 -5 279 -5 26 -6 -24 -3
-115z"/>
<path d="M4139 3025 c25 -8 47 -13 49 -10 9 9 -2 13 -48 19 l-45 5 44 -14z"/>
<path d="M4826 3031 c-4 -5 3 -7 14 -4 23 6 26 13 6 13 -8 0 -17 -4 -20 -9z"/>
<path d="M8015 3030 c3 -5 11 -10 17 -10 6 0 20 -7 30 -17 10 -9 21 -14 24
-11 3 3 -10 15 -29 27 -37 23 -52 27 -42 11z"/>
<path d="M4788 3023 c7 -3 16 -2 19 1 4 3 -2 6 -13 5 -11 0 -14 -3 -6 -6z"/>
<path d="M4220 3010 c20 -13 33 -13 25 0 -3 6 -14 10 -23 10 -15 0 -15 -2 -2
-10z"/>
<path d="M4720 3010 c-13 -9 -13 -10 0 -9 8 0 24 4 35 9 l20 9 -20 0 c-11 0
-27 -4 -35 -9z"/>
<path d="M2207 2992 c3 -12 9 -25 14 -28 14 -8 11 10 -6 32 -13 18 -14 18 -8
-4z"/>
<path d="M6765 2990 c-10 -11 -16 -22 -13 -25 3 -3 13 6 22 20 20 30 16 32 -9
5z"/>
<path d="M880 2990 c-9 -6 -10 -10 -3 -10 6 0 15 5 18 10 8 12 4 12 -15 0z"/>
<path d="M5264 2985 c-10 -8 -14 -15 -8 -15 5 0 19 7 30 15 10 8 14 15 8 15
-5 0 -19 -7 -30 -15z"/>
<path d="M560 2960 c-12 -16 -18 -30 -13 -30 4 0 16 14 25 30 22 39 15 39 -12
0z"/>
<path d="M4478 2983 c18 -2 45 -2 60 0 15 2 0 4 -33 4 -33 0 -45 -2 -27 -4z"/>
<path d="M8101 2987 c28 -21 59 -36 59 -29 0 5 -11 14 -25 20 -24 11 -44 16
-34 9z"/>
<path d="M8400 2981 c0 -6 4 -13 10 -16 6 -3 7 1 4 9 -7 18 -14 21 -14 7z"/>
<path d="M3745 2955 c22 -14 45 -25 50 -25 6 0 -10 11 -34 25 -56 32 -68 32
-16 0z"/>
<path d="M5210 2960 c-8 -5 -12 -11 -9 -14 3 -3 14 1 25 9 21 16 8 20 -16 5z"/>
<path d="M2240 2951 c0 -6 4 -13 10 -16 6 -3 7 1 4 9 -7 18 -14 21 -14 7z"/>
<path d="M782 2940 c-31 -13 -99 -60 -86 -60 5 0 25 11 44 25 19 14 39 25 46
25 7 0 16 5 19 10 7 12 7 12 -23 0z"/>
<path d="M6728 2933 c-8 -10 -23 -31 -33 -48 l-18 -30 21 19 c12 11 22 25 22
32 0 7 8 17 17 23 10 5 15 12 12 15 -3 4 -12 -2 -21 -11z"/>
<path d="M8170 2946 c0 -2 7 -7 16 -10 8 -3 12 -2 9 4 -6 10 -25 14 -25 6z"/>
<path d="M8420 2943 c0 -6 8 -17 18 -24 16 -13 16 -13 2 6 -8 11 -16 22 -17
24 -2 2 -3 0 -3 -6z"/>
<path d="M5160 2933 c-53 -20 -82 -34 -78 -38 3 -3 29 6 59 19 48 22 60 34 19
19z"/>
<path d="M8226 2915 c10 -8 24 -14 29 -14 6 0 1 6 -9 14 -11 8 -24 15 -30 15
-5 0 -1 -7 10 -15z"/>
<path d="M2272 2896 c6 -14 17 -27 24 -30 9 -3 5 7 -8 24 -26 36 -31 38 -16 6z"/>
<path d="M3874 2895 c11 -8 27 -15 35 -15 9 0 3 7 -13 15 -36 19 -47 19 -22 0z"/>
<path d="M487 2838 c-27 -46 -33 -64 -24 -70 9 -5 7 -8 -4 -8 -9 0 -23 -7 -30
-17 -16 -19 -13 -18 59 20 30 16 52 31 49 33 -3 3 -14 1 -25 -5 -51 -27 -53
-10 -8 58 19 28 31 51 27 51 -4 0 -24 -28 -44 -62z"/>
<path d="M8450 2893 c0 -6 8 -17 18 -24 16 -13 16 -13 2 6 -8 11 -16 22 -17
24 -2 2 -3 0 -3 -6z"/>
<path d="M3930 2881 c0 -8 41 -23 47 -17 2 1 -8 8 -22 14 -14 6 -25 8 -25 3z"/>
<path d="M5036 2881 c-4 -5 3 -7 14 -4 23 6 26 13 6 13 -8 0 -17 -4 -20 -9z"/>
<path d="M8300 2881 c0 -5 7 -12 16 -15 14 -5 15 -4 4 9 -14 17 -20 19 -20 6z"/>
<path d="M649 2867 c7 -7 14 -8 21 -1 6 6 2 10 -12 11 -16 2 -18 -1 -9 -10z"/>
<path d="M1584 2765 c0 -60 1 -84 3 -52 2 32 2 81 0 110 -2 29 -3 3 -3 -58z"/>
<path d="M7103 2858 c-15 -20 -25 -38 -20 -38 3 0 12 11 21 25 17 26 16 35 -1
13z"/>
<path d="M4015 2845 c17 -8 39 -14 50 -14 11 0 0 7 -25 15 -56 17 -64 17 -25
-1z"/>
<path d="M4950 2850 c-8 -5 -10 -10 -5 -10 6 0 17 5 25 10 8 5 11 10 5 10 -5
0 -17 -5 -25 -10z"/>
<path d="M7140 2854 c1 -15 28 -46 33 -37 2 4 -4 17 -14 27 -11 11 -19 15 -19
10z"/>
<path d="M1805 2823 l-17 -28 23 22 c12 12 20 25 17 28 -3 3 -13 -7 -23 -22z"/>
<path d="M1881 2842 c-1 -14 27 -72 35 -72 2 0 -2 12 -9 28 -8 15 -17 34 -20
42 -4 10 -6 11 -6 2z"/>
<path d="M2322 2825 c6 -14 15 -25 20 -25 4 0 8 -5 8 -11 0 -6 7 -17 15 -25
26 -26 16 0 -16 44 -35 48 -44 53 -27 17z"/>
<path d="M6663 2838 c-15 -20 -25 -38 -20 -38 3 0 12 11 21 25 17 26 16 35 -1
13z"/>
<path d="M8480 2845 c0 -4 9 -23 21 -41 23 -38 21 -41 -23 -18 -16 9 -27 11
-23 5 3 -6 23 -19 43 -28 20 -9 41 -19 45 -21 4 -2 -7 20 -24 50 -35 59 -39
65 -39 53z"/>
<path d="M4860 2830 c-13 -8 -13 -10 2 -10 9 0 20 5 23 10 8 13 -5 13 -25 0z"/>
<path d="M4908 2833 c7 -3 16 -2 19 1 4 3 -2 6 -13 5 -11 0 -14 -3 -6 -6z"/>
<path d="M8370 2830 c8 -5 20 -10 25 -10 6 0 3 5 -5 10 -8 5 -19 10 -25 10 -5
0 -3 -5 5 -10z"/>
<path d="M565 2820 c-8 -13 5 -13 25 0 13 8 13 10 -2 10 -9 0 -20 -4 -23 -10z"/>
<path d="M4098 2823 c6 -2 18 -2 25 0 6 3 1 5 -13 5 -14 0 -19 -2 -12 -5z"/>
<path d="M4795 2820 c-18 -8 -17 -9 7 -9 15 -1 30 4 33 9 7 12 -12 12 -40 0z"/>
<path d="M4148 2813 c6 -2 18 -2 25 0 6 3 1 5 -13 5 -14 0 -19 -2 -12 -5z"/>
<path d="M8415 2810 c3 -5 11 -10 16 -10 6 0 7 5 4 10 -3 6 -11 10 -16 10 -6
0 -7 -4 -4 -10z"/>
<path d="M4201 2806 c2 -2 22 -6 44 -10 29 -5 36 -4 25 3 -13 10 -79 16 -69 7z"/>
<path d="M4738 2803 c6 -2 18 -2 25 0 6 3 1 5 -13 5 -14 0 -19 -2 -12 -5z"/>
<path d="M7055 2790 c-16 -17 -16 -20 -3 -15 9 4 19 13 22 21 7 19 2 18 -19
-6z"/>
<path d="M7180 2796 c0 -8 4 -17 9 -20 5 -4 7 3 4 14 -6 23 -13 26 -13 6z"/>
<path d="M4300 2790 c0 -6 27 -10 67 -10 81 0 79 5 -4 14 -42 5 -63 3 -63 -4z"/>
<path d="M1739 2733 c-62 -85 -65 -90 -43 -68 26 25 98 125 90 125 -3 0 -24
-26 -47 -57z"/>
<path d="M4523 2783 c9 -2 23 -2 30 0 6 3 -1 5 -18 5 -16 0 -22 -2 -12 -5z"/>
<path d="M4593 2783 c15 -2 37 -2 50 0 12 2 0 4 -28 4 -27 0 -38 -2 -22 -4z"/>
<path d="M6594 2753 c-16 -21 -47 -58 -69 -83 -22 -25 -33 -39 -24 -33 9 7 20
9 24 5 5 -4 5 -2 2 4 -3 6 4 20 16 31 12 10 31 32 42 48 11 15 28 36 38 47 9
10 13 18 8 18 -5 0 -21 -17 -37 -37z"/>
<path d="M7026 2743 c-6 -14 -5 -15 5 -6 7 7 10 15 7 18 -3 3 -9 -2 -12 -12z"/>
<path d="M7211 2743 c7 -12 15 -20 18 -17 3 2 -3 12 -13 22 -17 16 -18 16 -5
-5z"/>
<path d="M1939 2733 c11 -22 30 -38 35 -32 2 2 -8 15 -21 29 -23 23 -24 23
-14 3z"/>
<path d="M2390 2744 c0 -3 28 -38 62 -78 34 -39 64 -73 65 -75 2 -2 5 -2 7 0
3 2 -27 39 -65 82 -38 43 -69 75 -69 71z"/>
<path d="M6980 2683 c-19 -20 -28 -34 -21 -32 13 5 69 69 59 69 -2 0 -19 -16
-38 -37z"/>
<path d="M1970 2686 c0 -2 8 -10 18 -17 15 -13 16 -12 3 4 -13 16 -21 21 -21
13z"/>
<path d="M7262 2670 c7 -11 17 -20 22 -20 5 0 1 9 -9 20 -10 11 -20 20 -22 20
-2 0 2 -9 9 -20z"/>
<path d="M2016 2628 c17 -29 34 -37 34 -16 0 6 -3 9 -6 5 -4 -3 -15 4 -26 16
l-19 22 17 -27z"/>
<path d="M6931 2631 c-1 -20 1 -21 14 -11 16 14 21 25 6 16 -5 -4 -12 0 -14 6
-3 7 -6 2 -6 -11z"/>
<path d="M1659 2633 c-1 -5 -1 -12 0 -17 1 -5 -5 -6 -14 -2 -10 3 -13 2 -10
-5 4 -5 -5 -25 -19 -43 -14 -19 -23 -36 -19 -39 3 -3 21 17 39 45 47 70 46 68
35 68 -6 0 -12 -3 -12 -7z"/>
<path d="M7290 2638 c0 -13 42 -78 52 -78 9 0 3 14 -14 35 -5 6 -15 19 -23 30
-8 11 -15 17 -15 13z"/>
<path d="M1572 2555 c-1 -45 2 -73 7 -65 4 8 5 44 1 80 l-7 65 -1 -80z"/>
<path d="M6469 2603 c-13 -16 -12 -17 4 -4 9 7 17 15 17 17 0 8 -8 3 -21 -13z"/>
<path d="M6909 2583 c-29 -35 -41 -53 -36 -53 2 0 17 16 31 35 28 36 31 49 5
18z"/>
<path d="M7370 2590 c0 -5 5 -10 11 -10 5 0 7 5 4 10 -3 6 -8 10 -11 10 -2 0
-4 -4 -4 -10z"/>
<path d="M2076 2545 c20 -25 40 -45 45 -45 5 0 0 9 -10 19 -11 11 -27 31 -36
45 -10 14 -22 26 -27 26 -5 0 7 -20 28 -45z"/>
<path d="M2604 2506 c50 -46 74 -75 66 -78 -11 -3 -11 -6 -2 -12 7 -4 12 -2
12 4 0 6 15 1 33 -11 17 -13 -4 11 -47 52 -44 40 -89 84 -100 97 -11 12 -24
22 -30 22 -6 0 25 -34 68 -74z"/>
<path d="M6385 2518 l-60 -62 55 49 c77 69 83 75 73 75 -5 0 -35 -28 -68 -62z"/>
<path d="M7350 2548 c0 -4 9 -22 20 -40 l20 -33 -1 40 c0 29 -2 35 -8 20 -8
-19 -8 -19 -19 0 -6 11 -12 17 -12 13z"/>
<path d="M6835 2495 c-35 -36 -31 -45 5 -10 17 16 30 30 30 32 0 8 -11 1 -35
-22z"/>
<path d="M2140 2472 c0 -5 39 -48 86 -98 47 -49 80 -81 73 -70 -8 10 -27 33
-44 50 -60 62 -100 111 -97 118 1 5 -2 8 -8 8 -5 0 -10 -4 -10 -8z"/>
<path d="M6280 2424 c-19 -19 -31 -34 -27 -34 11 0 72 58 67 63 -3 3 -21 -11
-40 -29z"/>
<path d="M6795 2442 c-5 -4 -19 -18 -30 -32 -16 -21 -14 -20 13 4 29 27 37 36
30 36 -2 0 -7 -4 -13 -8z"/>
<path d="M6175 2339 c-33 -28 -84 -67 -112 -86 -29 -20 -53 -40 -53 -46 0 -6
8 -3 18 6 10 10 22 17 25 17 4 0 15 8 25 18 10 9 33 28 52 42 38 28 118 100
110 99 -3 0 -32 -23 -65 -50z"/>
<path d="M2772 2355 c12 -14 26 -25 32 -25 5 0 -1 11 -14 25 -13 14 -27 25
-32 25 -4 0 2 -11 14 -25z"/>
<path d="M6605 2244 c-75 -75 -135 -138 -133 -140 3 -2 65 57 139 132 158 159
144 144 136 144 -3 0 -67 -61 -142 -136z"/>
<path d="M2835 2311 c19 -22 55 -46 55 -38 0 3 -17 17 -37 33 -31 23 -34 24
-18 5z"/>
<path d="M2414 2188 c50 -48 95 -88 99 -88 5 0 -13 20 -39 45 -25 25 -49 45
-52 45 -4 0 -27 19 -52 43 -26 23 -6 3 44 -45z"/>
<path d="M2930 2236 c0 -2 7 -7 16 -10 8 -3 12 -2 9 4 -6 10 -25 14 -25 6z"/>
<path d="M2974 2211 c7 -11 46 -35 46 -28 0 3 -12 12 -26 22 -15 9 -23 12 -20
6z"/>
<path d="M3036 2167 c3 -10 9 -15 12 -12 3 3 0 11 -7 18 -10 9 -11 8 -5 -6z"/>
<path d="M5925 2159 c-16 -10 -24 -19 -17 -19 8 0 25 9 39 20 32 25 18 25 -22
-1z"/>
<path d="M3060 2157 c0 -6 77 -57 87 -57 4 0 -1 6 -12 13 -48 33 -75 49 -75
44z"/>
<path d="M5865 2120 c-3 -6 1 -7 9 -4 18 7 21 14 7 14 -6 0 -13 -4 -16 -10z"/>
<path d="M3167 2089 c7 -7 15 -10 18 -7 3 3 -2 9 -12 12 -14 6 -15 5 -6 -5z"/>
<path d="M2535 2081 c3 -5 24 -24 48 -42 l42 -32 -40 41 c-36 37 -65 56 -50
33z"/>
<path d="M5790 2082 c0 -4 -14 -13 -31 -21 -16 -7 -28 -15 -26 -18 7 -6 77 29
77 39 0 4 -4 8 -10 8 -5 0 -10 -3 -10 -8z"/>
<path d="M6420 2070 c-13 -11 -21 -22 -18 -25 2 -3 15 6 28 20 28 30 22 33
-10 5z"/>
<path d="M3210 2055 c14 -8 32 -14 40 -14 9 0 4 6 -10 14 -14 8 -32 14 -40 14
-9 0 -4 -6 10 -14z"/>
<path d="M6359 2020 c-9 -10 -25 -22 -35 -28 -10 -6 -16 -13 -13 -16 3 -3 23
10 45 29 21 19 35 34 29 34 -5 0 -17 -9 -26 -19z"/>
<path d="M5675 2020 c-3 -5 1 -10 10 -10 9 0 13 5 10 10 -3 6 -8 10 -10 10 -2
0 -7 -4 -10 -10z"/>
<path d="M3320 2005 c14 -8 30 -14 35 -14 6 0 -1 6 -15 14 -14 8 -29 14 -35
14 -5 0 1 -6 15 -14z"/>
<path d="M5630 2000 c-8 -5 -10 -10 -5 -10 6 0 17 5 25 10 8 5 11 10 5 10 -5
0 -17 -5 -25 -10z"/>
<path d="M2685 1966 c37 -33 65 -49 65 -38 0 5 -10 14 -22 20 -13 7 -34 19
-48 28 -19 12 -18 10 5 -10z"/>
<path d="M3410 1965 c25 -13 52 -24 60 -24 8 -1 -9 10 -38 24 -68 32 -81 32
-22 0z"/>
<path d="M5565 1971 c-22 -11 -36 -20 -31 -20 17 -2 76 23 76 31 0 10 2 11
-45 -11z"/>
<path d="M6265 1947 c-16 -12 -35 -27 -42 -33 -6 -6 -34 -25 -62 -43 -28 -18
-51 -35 -51 -38 0 -10 174 110 185 127 9 14 4 12 -30 -13z"/>
<path d="M3505 1926 c11 -8 24 -12 29 -8 5 3 1 9 -10 13 -31 12 -39 10 -19 -5z"/>
<path d="M5467 1933 c-38 -10 -69 -31 -56 -38 7 -5 17 -1 24 8 7 9 15 14 18
11 3 -3 16 1 29 10 22 16 19 18 -15 9z"/>
<path d="M2769 1908 c15 -21 31 -23 31 -6 0 6 -3 8 -7 5 -3 -4 -13 -1 -22 6
-14 11 -14 10 -2 -5z"/>
<path d="M3575 1901 c6 -5 24 -13 40 -17 39 -9 30 0 -15 15 -19 6 -30 7 -25 2z"/>
<path d="M5310 1878 c-19 -5 -39 -14 -45 -20 -7 -8 -4 -9 10 -4 11 4 32 10 48
13 15 3 30 10 33 14 6 11 0 10 -46 -3z"/>
<path d="M2810 1876 c0 -2 7 -7 16 -10 8 -3 12 -2 9 4 -6 10 -25 14 -25 6z"/>
<path d="M3665 1870 c3 -5 8 -10 11 -10 2 0 4 5 4 10 0 6 -5 10 -11 10 -5 0
-7 -4 -4 -10z"/>
<path d="M2855 1849 c4 -5 17 -14 28 -20 12 -5 51 -27 87 -48 61 -37 225 -121
235 -121 3 0 5 5 5 10 0 6 -8 10 -18 10 -10 0 -28 7 -40 16 -12 8 -22 12 -22
7 0 -4 -4 -3 -8 2 -4 6 -41 27 -82 49 -41 21 -98 54 -127 72 -53 35 -69 41
-58 23z"/>
<path d="M3708 1853 c7 -3 16 -2 19 1 4 3 -2 6 -13 5 -11 0 -14 -3 -6 -6z"/>
<path d="M3748 1843 c7 -3 16 -2 19 1 4 3 -2 6 -13 5 -11 0 -14 -3 -6 -6z"/>
<path d="M5218 1843 c7 -3 16 -2 19 1 4 3 -2 6 -13 5 -11 0 -14 -3 -6 -6z"/>
<path d="M3780 1830 c0 -5 7 -10 15 -10 8 0 15 5 15 10 0 6 -7 10 -15 10 -8 0
-15 -4 -15 -10z"/>
<path d="M5145 1830 l-30 -8 30 -1 c17 0 37 4 45 9 13 9 13 10 0 9 -8 -1 -28
-5 -45 -9z"/>
<path d="M3820 1826 c0 -2 9 -6 20 -9 11 -3 20 -1 20 4 0 5 -9 9 -20 9 -11 0
-20 -2 -20 -4z"/>
<path d="M6079 1813 c-13 -16 -12 -17 4 -4 16 13 21 21 13 21 -2 0 -10 -8 -17
-17z"/>
<path d="M3890 1810 c8 -5 20 -10 25 -10 6 0 3 5 -5 10 -8 5 -19 10 -25 10 -5
0 -3 -5 5 -10z"/>
<path d="M5075 1810 c-3 -5 1 -10 9 -10 8 0 18 5 21 10 3 6 -1 10 -9 10 -8 0
-18 -4 -21 -10z"/>
<path d="M3938 1793 c6 -2 18 -2 25 0 6 3 1 5 -13 5 -14 0 -19 -2 -12 -5z"/>
<path d="M6020 1782 c-19 -9 -37 -20 -40 -23 -10 -12 -110 -59 -110 -52 0 5
-5 0 -11 -9 -5 -10 -16 -18 -24 -18 -8 0 -17 -4 -20 -10 -4 -6 1 -7 12 -3 27
10 233 124 233 129 0 5 1 6 -40 -14z"/>
<path d="M4008 1783 c6 -2 18 -2 25 0 6 3 1 5 -13 5 -14 0 -19 -2 -12 -5z"/>
<path d="M4958 1783 c7 -3 16 -2 19 1 4 3 -2 6 -13 5 -11 0 -14 -3 -6 -6z"/>
<path d="M4090 1769 c25 -4 65 -7 90 -7 l45 1 -55 7 c-30 5 -71 8 -90 8 -32 0
-31 -1 10 -9z"/>
<path d="M4813 1771 c-28 -4 -55 -10 -59 -14 -7 -7 42 -2 136 13 39 7 41 8 10
7 -19 0 -58 -3 -87 -6z"/>
<path d="M4678 1753 c7 -3 16 -2 19 1 4 3 -2 6 -13 5 -11 0 -14 -3 -6 -6z"/>
<path d="M4338 1743 c12 -2 32 -2 45 0 12 2 2 4 -23 4 -25 0 -35 -2 -22 -4z"/>
<path d="M4428 1743 c7 -3 16 -2 19 1 4 3 -2 6 -13 5 -11 0 -14 -3 -6 -6z"/>
<path d="M4558 1743 c18 -2 45 -2 60 0 15 2 0 4 -33 4 -33 0 -45 -2 -27 -4z"/>
<path d="M3230 1653 c8 -3 17 -9 20 -13 7 -10 72 -31 78 -25 3 2 -4 7 -14 11
-10 3 -31 12 -46 20 -14 8 -32 14 -40 13 -9 0 -9 -2 2 -6z"/>
<path d="M5733 1634 c-43 -19 -42 -25 2 -11 19 6 35 14 35 19 0 4 -1 8 -2 7
-2 0 -18 -7 -35 -15z"/>
<path d="M3384 1585 c11 -8 27 -15 35 -15 9 0 3 7 -13 15 -36 19 -47 19 -22 0z"/>
<path d="M5620 1584 c-24 -9 -29 -13 -14 -13 11 -1 29 6 40 14 22 17 20 17
-26 -1z"/>
<path d="M3440 1570 c0 -5 5 -10 11 -10 5 0 7 5 4 10 -3 6 -8 10 -11 10 -2 0
-4 -4 -4 -10z"/>
<path d="M3485 1550 c11 -5 29 -8 40 -8 16 0 15 2 -5 8 -34 11 -60 11 -35 0z"/>
<path d="M5518 1553 c-10 -2 -18 -9 -18 -14 0 -12 3 -12 36 6 28 14 19 18 -18
8z"/>
<path d="M5470 1530 c-13 -8 -12 -10 3 -10 9 0 17 5 17 10 0 12 -1 12 -20 0z"/>
<path d="M3595 1515 c56 -16 77 -19 55 -6 -8 5 -35 11 -60 15 l-45 6 50 -15z"/>
<path d="M5395 1510 c-25 -11 1 -11 35 0 20 6 21 8 5 8 -11 0 -29 -3 -40 -8z"/>
<path d="M5348 1493 c7 -3 16 -2 19 1 4 3 -2 6 -13 5 -11 0 -14 -3 -6 -6z"/>
<path d="M3720 1480 c0 -5 12 -10 28 -10 21 0 24 2 12 10 -20 13 -40 13 -40 0z"/>
<path d="M5270 1474 l-35 -14 34 5 c18 3 37 5 42 5 5 0 9 5 9 10 0 13 -7 12
-50 -6z"/>
<path d="M3788 1463 c7 -3 16 -2 19 1 4 3 -2 6 -13 5 -11 0 -14 -3 -6 -6z"/>
<path d="M3828 1453 c7 -3 16 -2 19 1 4 3 -2 6 -13 5 -11 0 -14 -3 -6 -6z"/>
<path d="M5116 1449 c2 -4 -11 -9 -29 -12 -17 -3 -50 -10 -72 -16 -38 -10 -38
-10 -5 -6 45 5 204 35 208 40 2 2 -21 3 -51 2 -30 -1 -53 -5 -51 -8z"/>
<path d="M3888 1443 c6 -2 18 -2 25 0 6 3 1 5 -13 5 -14 0 -19 -2 -12 -5z"/>
<path d="M3931 1436 c2 -2 20 -6 39 -10 25 -4 31 -3 20 4 -14 9 -69 15 -59 6z"/>
<path d="M4048 1413 c12 -2 32 -2 45 0 12 2 2 4 -23 4 -25 0 -35 -2 -22 -4z"/>
<path d="M4128 1403 c6 -2 18 -2 25 0 6 3 1 5 -13 5 -14 0 -19 -2 -12 -5z"/>
<path d="M4178 1403 c6 -2 18 -2 25 0 6 3 1 5 -13 5 -14 0 -19 -2 -12 -5z"/>
<path d="M4898 1403 c12 -2 30 -2 40 0 9 3 -1 5 -23 4 -22 0 -30 -2 -17 -4z"/>
<path d="M4253 1393 c15 -2 39 -2 55 0 15 2 2 4 -28 4 -30 0 -43 -2 -27 -4z"/>
<path d="M4748 1393 c17 -2 47 -2 65 0 17 2 3 4 -33 4 -36 0 -50 -2 -32 -4z"/>
<path d="M4462 1383 c37 -2 100 -2 140 0 40 1 10 3 -67 3 -77 0 -110 -1 -73
-3z"/>
</g>
</svg>
